%TF.GenerationSoftware,KiCad,Pcbnew,7.0.5*%
%TF.CreationDate,2023-06-10T20:52:47-07:00*%
%TF.ProjectId,st-breakout,73742d62-7265-4616-9b6f-75742e6b6963,rev?*%
%TF.SameCoordinates,Original*%
%TF.FileFunction,Copper,L2,Bot*%
%TF.FilePolarity,Positive*%
%FSLAX46Y46*%
G04 Gerber Fmt 4.6, Leading zero omitted, Abs format (unit mm)*
G04 Created by KiCad (PCBNEW 7.0.5) date 2023-06-10 20:52:47*
%MOMM*%
%LPD*%
G01*
G04 APERTURE LIST*
%TA.AperFunction,ComponentPad*%
%ADD10O,2.000000X1.000000*%
%TD*%
%TA.AperFunction,ComponentPad*%
%ADD11O,2.100000X1.050000*%
%TD*%
%TA.AperFunction,ComponentPad*%
%ADD12C,5.000000*%
%TD*%
%TA.AperFunction,ComponentPad*%
%ADD13R,1.700000X1.700000*%
%TD*%
%TA.AperFunction,ComponentPad*%
%ADD14O,1.700000X1.700000*%
%TD*%
%TA.AperFunction,ViaPad*%
%ADD15C,0.700000*%
%TD*%
G04 APERTURE END LIST*
D10*
%TO.P,J5,S2,SHELL_GND*%
%TO.N,Net-(J5-SHELL_GND-PadS1)*%
X153900000Y-98820000D03*
%TO.P,J5,S3,SHELL_GND*%
X153900000Y-90180000D03*
D11*
%TO.P,J5,S1,SHELL_GND*%
X149720000Y-98820000D03*
%TO.P,J5,S4,SHELL_GND*%
X149720000Y-90180000D03*
%TD*%
D12*
%TO.P,H2,1,1*%
%TO.N,GND*%
X153250000Y-78000000D03*
%TD*%
D13*
%TO.P,J2,1,Pin_1*%
%TO.N,+3.3V*%
X145830000Y-77200000D03*
D14*
%TO.P,J2,2,Pin_2*%
%TO.N,Net-(J2-Pin_2)*%
X143290000Y-77200000D03*
%TO.P,J2,3,Pin_3*%
%TO.N,SWDCLK*%
X140750000Y-77200000D03*
%TO.P,J2,4,Pin_4*%
%TO.N,NRST*%
X138210000Y-77200000D03*
%TO.P,J2,5,Pin_5*%
%TO.N,GND*%
X135670000Y-77200000D03*
%TD*%
D12*
%TO.P,H1,1,1*%
%TO.N,GND*%
X117750000Y-78000000D03*
%TD*%
D13*
%TO.P,J1,1,Pin_1*%
%TO.N,+3.3V*%
X140160000Y-111000000D03*
D14*
%TO.P,J1,2,Pin_2*%
%TO.N,SPI_SCK*%
X137620000Y-111000000D03*
%TO.P,J1,3,Pin_3*%
%TO.N,SPI_MISO*%
X135080000Y-111000000D03*
%TO.P,J1,4,Pin_4*%
%TO.N,SPI_MOSI*%
X132540000Y-111000000D03*
%TO.P,J1,5,Pin_5*%
%TO.N,GND*%
X130000000Y-111000000D03*
%TD*%
D12*
%TO.P,H4,1,1*%
%TO.N,GND*%
X117750000Y-111000000D03*
%TD*%
%TO.P,H3,1,1*%
%TO.N,GND*%
X153250000Y-111000000D03*
%TD*%
D13*
%TO.P,J4,1,Pin_1*%
%TO.N,+3.3V*%
X121200000Y-105900000D03*
D14*
%TO.P,J4,2,Pin_2*%
%TO.N,USART_RX*%
X121200000Y-103360000D03*
%TO.P,J4,3,Pin_3*%
%TO.N,USART_TX*%
X121200000Y-100820000D03*
%TO.P,J4,4,Pin_4*%
%TO.N,GND*%
X121200000Y-98280000D03*
%TD*%
D15*
%TO.N,GND*%
X137000000Y-84100000D03*
X143100000Y-104400000D03*
X144000000Y-103600000D03*
X143900000Y-104400000D03*
X127200000Y-111000000D03*
X123500000Y-98300000D03*
X144000000Y-96900000D03*
X146000000Y-96600000D03*
X137900000Y-95600000D03*
X147700000Y-97700000D03*
X147900000Y-91300000D03*
X145000000Y-92700000D03*
X148100000Y-82600000D03*
X155100000Y-105600000D03*
X126000000Y-85000000D03*
X130000000Y-79900000D03*
X133400000Y-77200000D03*
X133300000Y-89100000D03*
X125100000Y-94700000D03*
X126020000Y-97600000D03*
X129800000Y-97320000D03*
%TD*%
%TA.AperFunction,Conductor*%
%TO.N,GND*%
G36*
X152410395Y-74901185D02*
G01*
X152456150Y-74953989D01*
X152466094Y-75023147D01*
X152437069Y-75086703D01*
X152385766Y-75122022D01*
X152059745Y-75240683D01*
X152059739Y-75240685D01*
X151747461Y-75397519D01*
X151455485Y-75589554D01*
X151312817Y-75709264D01*
X152559874Y-76956321D01*
X152424253Y-77054856D01*
X152268761Y-77217488D01*
X152207198Y-77310750D01*
X150956148Y-76059701D01*
X150956146Y-76059701D01*
X150947973Y-76068366D01*
X150739289Y-76348677D01*
X150564561Y-76651316D01*
X150564555Y-76651329D01*
X150426145Y-76972199D01*
X150325916Y-77306988D01*
X150325914Y-77306997D01*
X150265236Y-77651119D01*
X150265235Y-77651130D01*
X150244916Y-77999996D01*
X150244916Y-78000003D01*
X150265235Y-78348869D01*
X150265236Y-78348880D01*
X150325914Y-78693002D01*
X150325916Y-78693011D01*
X150426145Y-79027800D01*
X150564555Y-79348670D01*
X150564561Y-79348683D01*
X150739289Y-79651322D01*
X150947972Y-79931631D01*
X150947976Y-79931636D01*
X150956147Y-79940297D01*
X150956148Y-79940298D01*
X152203665Y-78692781D01*
X152342855Y-78867320D01*
X152512299Y-79015358D01*
X152559808Y-79043743D01*
X151312817Y-80290733D01*
X151312818Y-80290734D01*
X151455480Y-80410442D01*
X151747461Y-80602480D01*
X152059739Y-80759314D01*
X152059745Y-80759316D01*
X152388130Y-80878838D01*
X152388133Y-80878839D01*
X152728171Y-80959429D01*
X153075276Y-80999999D01*
X153075277Y-81000000D01*
X153424723Y-81000000D01*
X153424723Y-80999999D01*
X153771827Y-80959429D01*
X153771829Y-80959429D01*
X154111866Y-80878839D01*
X154111869Y-80878838D01*
X154440254Y-80759316D01*
X154440260Y-80759314D01*
X154752538Y-80602480D01*
X155044515Y-80410445D01*
X155187180Y-80290734D01*
X155187181Y-80290733D01*
X153940125Y-79043678D01*
X154075747Y-78945144D01*
X154231239Y-78782512D01*
X154292801Y-78689248D01*
X155543850Y-79940297D01*
X155552032Y-79931625D01*
X155760710Y-79651322D01*
X155935438Y-79348683D01*
X155935444Y-79348670D01*
X156073854Y-79027800D01*
X156125709Y-78854593D01*
X156163794Y-78796016D01*
X156227502Y-78767328D01*
X156296607Y-78777637D01*
X156349168Y-78823670D01*
X156368500Y-78890157D01*
X156368500Y-110109842D01*
X156348815Y-110176881D01*
X156296011Y-110222636D01*
X156226853Y-110232580D01*
X156163297Y-110203555D01*
X156125709Y-110145406D01*
X156073854Y-109972199D01*
X155935444Y-109651329D01*
X155935438Y-109651316D01*
X155760710Y-109348677D01*
X155552029Y-109068371D01*
X155543850Y-109059701D01*
X155543850Y-109059700D01*
X154296333Y-110307217D01*
X154157145Y-110132680D01*
X153987701Y-109984642D01*
X153940191Y-109956256D01*
X155187181Y-108709265D01*
X155187180Y-108709264D01*
X155044519Y-108589557D01*
X154752538Y-108397519D01*
X154440260Y-108240685D01*
X154440254Y-108240683D01*
X154111869Y-108121161D01*
X154111866Y-108121160D01*
X153771828Y-108040570D01*
X153424723Y-108000000D01*
X153075277Y-108000000D01*
X152728172Y-108040570D01*
X152728170Y-108040570D01*
X152388133Y-108121160D01*
X152388130Y-108121161D01*
X152059745Y-108240683D01*
X152059739Y-108240685D01*
X151747461Y-108397519D01*
X151455485Y-108589554D01*
X151312817Y-108709264D01*
X152559874Y-109956321D01*
X152424253Y-110054856D01*
X152268761Y-110217488D01*
X152207198Y-110310750D01*
X150956148Y-109059701D01*
X150956146Y-109059701D01*
X150947973Y-109068366D01*
X150739289Y-109348677D01*
X150564561Y-109651316D01*
X150564555Y-109651329D01*
X150426145Y-109972199D01*
X150325916Y-110306988D01*
X150325914Y-110306997D01*
X150265236Y-110651119D01*
X150265235Y-110651130D01*
X150244916Y-110999996D01*
X150244916Y-111000003D01*
X150265235Y-111348869D01*
X150265236Y-111348880D01*
X150325914Y-111693002D01*
X150325916Y-111693011D01*
X150426145Y-112027800D01*
X150564555Y-112348670D01*
X150564561Y-112348683D01*
X150739289Y-112651322D01*
X150947972Y-112931631D01*
X150947976Y-112931636D01*
X150956147Y-112940297D01*
X150956149Y-112940298D01*
X152203665Y-111692781D01*
X152342855Y-111867320D01*
X152512299Y-112015358D01*
X152559808Y-112043743D01*
X151312817Y-113290733D01*
X151312818Y-113290734D01*
X151455480Y-113410442D01*
X151747461Y-113602480D01*
X152059739Y-113759314D01*
X152059745Y-113759316D01*
X152385766Y-113877978D01*
X152442030Y-113919404D01*
X152466966Y-113984673D01*
X152452656Y-114053061D01*
X152403645Y-114102857D01*
X152343356Y-114118500D01*
X118656644Y-114118500D01*
X118589605Y-114098815D01*
X118543850Y-114046011D01*
X118533906Y-113976853D01*
X118562931Y-113913297D01*
X118614234Y-113877978D01*
X118940254Y-113759316D01*
X118940260Y-113759314D01*
X119252538Y-113602480D01*
X119544515Y-113410445D01*
X119687180Y-113290734D01*
X119687181Y-113290733D01*
X118440125Y-112043678D01*
X118575747Y-111945144D01*
X118731239Y-111782512D01*
X118792801Y-111689249D01*
X120043850Y-112940297D01*
X120052032Y-112931625D01*
X120260710Y-112651322D01*
X120435438Y-112348683D01*
X120435444Y-112348670D01*
X120573854Y-112027800D01*
X120674083Y-111693011D01*
X120674085Y-111693002D01*
X120734763Y-111348880D01*
X120734764Y-111348869D01*
X120740523Y-111250000D01*
X128669364Y-111250000D01*
X128726567Y-111463486D01*
X128726570Y-111463492D01*
X128826399Y-111677578D01*
X128961894Y-111871082D01*
X129128917Y-112038105D01*
X129322421Y-112173600D01*
X129536507Y-112273429D01*
X129536516Y-112273433D01*
X129750000Y-112330634D01*
X129750000Y-111435501D01*
X129857685Y-111484680D01*
X129964237Y-111500000D01*
X130035763Y-111500000D01*
X130142315Y-111484680D01*
X130250000Y-111435501D01*
X130250000Y-112330633D01*
X130463483Y-112273433D01*
X130463492Y-112273429D01*
X130677578Y-112173600D01*
X130871082Y-112038105D01*
X131038105Y-111871082D01*
X131168119Y-111685405D01*
X131222696Y-111641781D01*
X131292195Y-111634588D01*
X131354549Y-111666110D01*
X131371269Y-111685405D01*
X131501505Y-111871401D01*
X131668599Y-112038495D01*
X131765384Y-112106264D01*
X131862165Y-112174032D01*
X131862167Y-112174033D01*
X131862170Y-112174035D01*
X132076337Y-112273903D01*
X132304592Y-112335063D01*
X132481034Y-112350500D01*
X132539999Y-112355659D01*
X132540000Y-112355659D01*
X132540001Y-112355659D01*
X132598966Y-112350500D01*
X132775408Y-112335063D01*
X133003663Y-112273903D01*
X133217830Y-112174035D01*
X133411401Y-112038495D01*
X133578495Y-111871401D01*
X133708426Y-111685840D01*
X133763001Y-111642217D01*
X133832499Y-111635023D01*
X133894854Y-111666546D01*
X133911574Y-111685841D01*
X133916595Y-111693011D01*
X134041505Y-111871401D01*
X134208599Y-112038495D01*
X134305384Y-112106264D01*
X134402165Y-112174032D01*
X134402167Y-112174033D01*
X134402170Y-112174035D01*
X134616337Y-112273903D01*
X134844592Y-112335063D01*
X135021034Y-112350500D01*
X135079999Y-112355659D01*
X135080000Y-112355659D01*
X135080001Y-112355659D01*
X135138966Y-112350500D01*
X135315408Y-112335063D01*
X135543663Y-112273903D01*
X135757830Y-112174035D01*
X135951401Y-112038495D01*
X136118495Y-111871401D01*
X136248426Y-111685841D01*
X136303002Y-111642217D01*
X136372500Y-111635023D01*
X136434855Y-111666546D01*
X136451575Y-111685842D01*
X136581281Y-111871082D01*
X136581505Y-111871401D01*
X136748599Y-112038495D01*
X136845384Y-112106264D01*
X136942165Y-112174032D01*
X136942167Y-112174033D01*
X136942170Y-112174035D01*
X137156337Y-112273903D01*
X137384592Y-112335063D01*
X137561034Y-112350500D01*
X137619999Y-112355659D01*
X137620000Y-112355659D01*
X137620001Y-112355659D01*
X137678966Y-112350500D01*
X137855408Y-112335063D01*
X138083663Y-112273903D01*
X138297830Y-112174035D01*
X138491401Y-112038495D01*
X138613329Y-111916566D01*
X138674648Y-111883084D01*
X138744340Y-111888068D01*
X138800274Y-111929939D01*
X138817189Y-111960917D01*
X138866202Y-112092328D01*
X138866206Y-112092335D01*
X138952452Y-112207544D01*
X138952455Y-112207547D01*
X139067664Y-112293793D01*
X139067671Y-112293797D01*
X139202517Y-112344091D01*
X139202516Y-112344091D01*
X139209444Y-112344835D01*
X139262127Y-112350500D01*
X141057872Y-112350499D01*
X141117483Y-112344091D01*
X141252331Y-112293796D01*
X141367546Y-112207546D01*
X141453796Y-112092331D01*
X141504091Y-111957483D01*
X141510500Y-111897873D01*
X141510499Y-110102128D01*
X141504091Y-110042517D01*
X141502810Y-110039083D01*
X141453797Y-109907671D01*
X141453793Y-109907664D01*
X141367547Y-109792455D01*
X141367544Y-109792452D01*
X141252335Y-109706206D01*
X141252328Y-109706202D01*
X141117482Y-109655908D01*
X141117483Y-109655908D01*
X141057883Y-109649501D01*
X141057881Y-109649500D01*
X141057873Y-109649500D01*
X141057864Y-109649500D01*
X139262129Y-109649500D01*
X139262123Y-109649501D01*
X139202516Y-109655908D01*
X139067671Y-109706202D01*
X139067664Y-109706206D01*
X138952455Y-109792452D01*
X138952452Y-109792455D01*
X138866206Y-109907664D01*
X138866203Y-109907669D01*
X138817189Y-110039083D01*
X138775317Y-110095016D01*
X138709853Y-110119433D01*
X138641580Y-110104581D01*
X138613326Y-110083430D01*
X138491402Y-109961506D01*
X138491395Y-109961501D01*
X138297834Y-109825967D01*
X138297830Y-109825965D01*
X138295711Y-109824977D01*
X138083663Y-109726097D01*
X138083659Y-109726096D01*
X138083655Y-109726094D01*
X137855413Y-109664938D01*
X137855403Y-109664936D01*
X137620001Y-109644341D01*
X137619999Y-109644341D01*
X137384596Y-109664936D01*
X137384586Y-109664938D01*
X137156344Y-109726094D01*
X137156335Y-109726098D01*
X136942171Y-109825964D01*
X136942169Y-109825965D01*
X136748597Y-109961505D01*
X136581505Y-110128597D01*
X136451575Y-110314158D01*
X136396998Y-110357783D01*
X136327500Y-110364977D01*
X136265145Y-110333454D01*
X136248425Y-110314158D01*
X136118494Y-110128597D01*
X135951402Y-109961506D01*
X135951395Y-109961501D01*
X135757834Y-109825967D01*
X135757830Y-109825965D01*
X135755711Y-109824977D01*
X135543663Y-109726097D01*
X135543659Y-109726096D01*
X135543655Y-109726094D01*
X135315413Y-109664938D01*
X135315403Y-109664936D01*
X135080001Y-109644341D01*
X135079999Y-109644341D01*
X134844596Y-109664936D01*
X134844586Y-109664938D01*
X134616344Y-109726094D01*
X134616335Y-109726098D01*
X134402171Y-109825964D01*
X134402169Y-109825965D01*
X134208597Y-109961505D01*
X134041505Y-110128597D01*
X133911575Y-110314158D01*
X133856998Y-110357783D01*
X133787500Y-110364977D01*
X133725145Y-110333454D01*
X133708425Y-110314158D01*
X133578494Y-110128597D01*
X133411402Y-109961506D01*
X133411395Y-109961501D01*
X133217834Y-109825967D01*
X133217830Y-109825965D01*
X133215711Y-109824977D01*
X133003663Y-109726097D01*
X133003659Y-109726096D01*
X133003655Y-109726094D01*
X132775413Y-109664938D01*
X132775403Y-109664936D01*
X132540001Y-109644341D01*
X132539999Y-109644341D01*
X132304596Y-109664936D01*
X132304586Y-109664938D01*
X132076344Y-109726094D01*
X132076335Y-109726098D01*
X131862171Y-109825964D01*
X131862169Y-109825965D01*
X131668597Y-109961505D01*
X131501508Y-110128594D01*
X131371269Y-110314595D01*
X131316692Y-110358219D01*
X131247193Y-110365412D01*
X131184839Y-110333890D01*
X131168119Y-110314594D01*
X131038113Y-110128926D01*
X131038108Y-110128920D01*
X130871082Y-109961894D01*
X130677578Y-109826399D01*
X130463492Y-109726570D01*
X130463486Y-109726567D01*
X130250000Y-109669364D01*
X130250000Y-110564498D01*
X130142315Y-110515320D01*
X130035763Y-110500000D01*
X129964237Y-110500000D01*
X129857685Y-110515320D01*
X129750000Y-110564498D01*
X129750000Y-109669364D01*
X129749999Y-109669364D01*
X129536513Y-109726567D01*
X129536507Y-109726570D01*
X129322422Y-109826399D01*
X129322420Y-109826400D01*
X129128926Y-109961886D01*
X129128920Y-109961891D01*
X128961891Y-110128920D01*
X128961886Y-110128926D01*
X128826400Y-110322420D01*
X128826399Y-110322422D01*
X128726570Y-110536507D01*
X128726567Y-110536513D01*
X128669364Y-110749999D01*
X128669364Y-110750000D01*
X129566314Y-110750000D01*
X129540507Y-110790156D01*
X129500000Y-110928111D01*
X129500000Y-111071889D01*
X129540507Y-111209844D01*
X129566314Y-111250000D01*
X128669364Y-111250000D01*
X120740523Y-111250000D01*
X120755084Y-111000003D01*
X120755084Y-110999996D01*
X120734764Y-110651130D01*
X120734763Y-110651119D01*
X120674085Y-110306997D01*
X120674083Y-110306988D01*
X120573854Y-109972199D01*
X120435444Y-109651329D01*
X120435438Y-109651316D01*
X120260710Y-109348677D01*
X120052029Y-109068371D01*
X120043850Y-109059701D01*
X120043850Y-109059700D01*
X118796333Y-110307217D01*
X118657145Y-110132680D01*
X118487701Y-109984642D01*
X118440191Y-109956256D01*
X119687181Y-108709265D01*
X119687180Y-108709264D01*
X119544519Y-108589557D01*
X119252538Y-108397519D01*
X118940260Y-108240685D01*
X118940254Y-108240683D01*
X118611869Y-108121161D01*
X118611866Y-108121160D01*
X118271828Y-108040570D01*
X117924723Y-108000000D01*
X117575277Y-108000000D01*
X117228172Y-108040570D01*
X117228170Y-108040570D01*
X116888133Y-108121160D01*
X116888130Y-108121161D01*
X116559745Y-108240683D01*
X116559739Y-108240685D01*
X116247461Y-108397519D01*
X115955485Y-108589554D01*
X115812817Y-108709264D01*
X117059874Y-109956321D01*
X116924253Y-110054856D01*
X116768761Y-110217488D01*
X116707198Y-110310751D01*
X115456148Y-109059701D01*
X115456146Y-109059701D01*
X115447973Y-109068366D01*
X115239289Y-109348677D01*
X115064561Y-109651316D01*
X115064555Y-109651329D01*
X114926145Y-109972199D01*
X114874291Y-110145406D01*
X114836206Y-110203983D01*
X114772498Y-110232671D01*
X114703393Y-110222362D01*
X114650831Y-110176329D01*
X114631500Y-110109842D01*
X114631500Y-103360000D01*
X119844341Y-103360000D01*
X119864936Y-103595403D01*
X119864938Y-103595413D01*
X119926094Y-103823655D01*
X119926096Y-103823659D01*
X119926097Y-103823663D01*
X120025965Y-104037829D01*
X120025965Y-104037830D01*
X120025967Y-104037834D01*
X120134281Y-104192521D01*
X120161501Y-104231396D01*
X120161506Y-104231402D01*
X120283430Y-104353326D01*
X120316915Y-104414649D01*
X120311931Y-104484341D01*
X120270059Y-104540274D01*
X120239083Y-104557189D01*
X120107669Y-104606203D01*
X120107664Y-104606206D01*
X119992455Y-104692452D01*
X119992452Y-104692455D01*
X119906206Y-104807664D01*
X119906202Y-104807671D01*
X119855908Y-104942517D01*
X119849501Y-105002116D01*
X119849501Y-105002123D01*
X119849500Y-105002135D01*
X119849500Y-106797870D01*
X119849501Y-106797876D01*
X119855908Y-106857483D01*
X119906202Y-106992328D01*
X119906206Y-106992335D01*
X119992452Y-107107544D01*
X119992455Y-107107547D01*
X120107664Y-107193793D01*
X120107671Y-107193797D01*
X120242517Y-107244091D01*
X120242516Y-107244091D01*
X120249444Y-107244835D01*
X120302127Y-107250500D01*
X122097872Y-107250499D01*
X122157483Y-107244091D01*
X122292331Y-107193796D01*
X122407546Y-107107546D01*
X122493796Y-106992331D01*
X122544091Y-106857483D01*
X122550500Y-106797873D01*
X122550499Y-105002128D01*
X122544091Y-104942517D01*
X122493796Y-104807669D01*
X122493795Y-104807668D01*
X122493793Y-104807664D01*
X122407547Y-104692455D01*
X122407544Y-104692452D01*
X122292335Y-104606206D01*
X122292328Y-104606202D01*
X122160917Y-104557189D01*
X122104983Y-104515318D01*
X122080566Y-104449853D01*
X122095418Y-104381580D01*
X122116563Y-104353332D01*
X122238495Y-104231401D01*
X122374035Y-104037830D01*
X122473903Y-103823663D01*
X122535063Y-103595408D01*
X122555659Y-103360000D01*
X122535063Y-103124592D01*
X122473903Y-102896337D01*
X122374035Y-102682171D01*
X122238495Y-102488599D01*
X122238494Y-102488597D01*
X122071402Y-102321506D01*
X122071396Y-102321501D01*
X121885842Y-102191575D01*
X121842217Y-102136998D01*
X121835023Y-102067500D01*
X121866546Y-102005145D01*
X121885842Y-101988425D01*
X121908026Y-101972891D01*
X122071401Y-101858495D01*
X122238495Y-101691401D01*
X122374035Y-101497830D01*
X122473903Y-101283663D01*
X122535063Y-101055408D01*
X122555659Y-100820000D01*
X122535063Y-100584592D01*
X122473903Y-100356337D01*
X122374035Y-100142171D01*
X122238495Y-99948599D01*
X122238494Y-99948597D01*
X122071402Y-99781506D01*
X122071401Y-99781505D01*
X121885405Y-99651269D01*
X121841781Y-99596692D01*
X121834588Y-99527193D01*
X121866110Y-99464839D01*
X121885405Y-99448119D01*
X122071082Y-99318105D01*
X122238105Y-99151082D01*
X122373600Y-98957578D01*
X122437754Y-98819999D01*
X148164538Y-98819999D01*
X148184337Y-99021031D01*
X148242978Y-99214345D01*
X148338198Y-99392488D01*
X148338203Y-99392495D01*
X148466352Y-99548647D01*
X148524896Y-99596692D01*
X148622506Y-99676798D01*
X148622509Y-99676799D01*
X148622511Y-99676801D01*
X148800654Y-99772021D01*
X148800656Y-99772021D01*
X148800659Y-99772023D01*
X148993967Y-99830662D01*
X149144620Y-99845500D01*
X149144623Y-99845500D01*
X150295377Y-99845500D01*
X150295380Y-99845500D01*
X150446033Y-99830662D01*
X150639341Y-99772023D01*
X150817494Y-99676798D01*
X150973647Y-99548647D01*
X151101798Y-99392494D01*
X151197023Y-99214341D01*
X151255662Y-99021033D01*
X151270445Y-98870936D01*
X152395631Y-98870936D01*
X152426442Y-99072063D01*
X152426445Y-99072075D01*
X152497111Y-99262881D01*
X152497115Y-99262888D01*
X152604745Y-99435567D01*
X152604747Y-99435569D01*
X152604748Y-99435571D01*
X152744941Y-99583053D01*
X152842950Y-99651269D01*
X152911949Y-99699294D01*
X152911950Y-99699294D01*
X152911951Y-99699295D01*
X153098942Y-99779540D01*
X153298259Y-99820500D01*
X154450743Y-99820500D01*
X154602439Y-99805074D01*
X154796579Y-99744162D01*
X154796580Y-99744161D01*
X154796588Y-99744159D01*
X154974502Y-99645409D01*
X155128895Y-99512866D01*
X155253448Y-99351958D01*
X155343060Y-99169271D01*
X155394063Y-98972285D01*
X155404369Y-98769064D01*
X155373556Y-98567929D01*
X155320865Y-98425659D01*
X155302888Y-98377118D01*
X155302887Y-98377117D01*
X155302886Y-98377113D01*
X155195252Y-98204429D01*
X155055059Y-98056947D01*
X154920373Y-97963203D01*
X154888050Y-97940705D01*
X154701056Y-97860459D01*
X154501741Y-97819500D01*
X153349258Y-97819500D01*
X153349257Y-97819500D01*
X153197560Y-97834925D01*
X153003420Y-97895837D01*
X153003405Y-97895844D01*
X152825500Y-97994589D01*
X152825495Y-97994592D01*
X152671106Y-98127132D01*
X152671104Y-98127134D01*
X152546554Y-98288037D01*
X152546553Y-98288040D01*
X152456940Y-98470728D01*
X152405937Y-98667714D01*
X152395631Y-98870936D01*
X151270445Y-98870936D01*
X151275462Y-98820000D01*
X151255662Y-98618967D01*
X151197023Y-98425659D01*
X151197021Y-98425656D01*
X151197021Y-98425654D01*
X151101801Y-98247511D01*
X151101799Y-98247509D01*
X151101798Y-98247506D01*
X151003012Y-98127134D01*
X150973647Y-98091352D01*
X150817495Y-97963203D01*
X150817488Y-97963198D01*
X150639340Y-97867976D01*
X150633717Y-97865647D01*
X150634344Y-97864131D01*
X150582524Y-97830163D01*
X150554076Y-97766347D01*
X150564644Y-97697281D01*
X150573240Y-97683427D01*
X150573129Y-97683363D01*
X150645977Y-97557186D01*
X150645977Y-97557185D01*
X150645978Y-97557184D01*
X150676331Y-97424197D01*
X150666138Y-97288172D01*
X150616303Y-97161195D01*
X150531255Y-97054547D01*
X150418550Y-96977707D01*
X150418549Y-96977706D01*
X150418548Y-96977706D01*
X150288203Y-96937500D01*
X150186090Y-96937500D01*
X150186082Y-96937500D01*
X150085116Y-96952719D01*
X149962219Y-97011903D01*
X149862224Y-97104684D01*
X149794022Y-97222813D01*
X149763669Y-97355803D01*
X149763668Y-97355804D01*
X149773861Y-97491826D01*
X149826206Y-97625198D01*
X149832375Y-97694794D01*
X149799937Y-97756678D01*
X149739192Y-97791201D01*
X149710778Y-97794500D01*
X149144620Y-97794500D01*
X149107433Y-97798162D01*
X148993968Y-97809337D01*
X148800654Y-97867978D01*
X148622511Y-97963198D01*
X148622504Y-97963203D01*
X148466352Y-98091352D01*
X148338203Y-98247504D01*
X148338198Y-98247511D01*
X148242978Y-98425654D01*
X148184337Y-98618968D01*
X148164538Y-98819999D01*
X122437754Y-98819999D01*
X122473429Y-98743492D01*
X122473432Y-98743486D01*
X122530636Y-98530000D01*
X121633686Y-98530000D01*
X121659493Y-98489844D01*
X121700000Y-98351889D01*
X121700000Y-98208111D01*
X121659493Y-98070156D01*
X121633686Y-98030000D01*
X122530636Y-98030000D01*
X122530635Y-98029999D01*
X122473432Y-97816513D01*
X122473429Y-97816507D01*
X122373600Y-97602422D01*
X122373599Y-97602420D01*
X122238113Y-97408926D01*
X122238108Y-97408920D01*
X122071082Y-97241894D01*
X121877578Y-97106399D01*
X121663492Y-97006570D01*
X121663486Y-97006567D01*
X121450000Y-96949364D01*
X121450000Y-97844498D01*
X121342315Y-97795320D01*
X121235763Y-97780000D01*
X121164237Y-97780000D01*
X121057685Y-97795320D01*
X120950000Y-97844498D01*
X120950000Y-96949364D01*
X120949999Y-96949364D01*
X120736513Y-97006567D01*
X120736507Y-97006570D01*
X120522422Y-97106399D01*
X120522420Y-97106400D01*
X120328926Y-97241886D01*
X120328920Y-97241891D01*
X120161891Y-97408920D01*
X120161886Y-97408926D01*
X120026400Y-97602420D01*
X120026399Y-97602422D01*
X119926570Y-97816507D01*
X119926567Y-97816513D01*
X119869364Y-98029999D01*
X119869364Y-98030000D01*
X120766314Y-98030000D01*
X120740507Y-98070156D01*
X120700000Y-98208111D01*
X120700000Y-98351889D01*
X120740507Y-98489844D01*
X120766314Y-98530000D01*
X119869364Y-98530000D01*
X119926567Y-98743486D01*
X119926570Y-98743492D01*
X120026399Y-98957578D01*
X120161894Y-99151082D01*
X120328917Y-99318105D01*
X120514595Y-99448119D01*
X120558219Y-99502696D01*
X120565412Y-99572195D01*
X120533890Y-99634549D01*
X120514595Y-99651269D01*
X120328594Y-99781508D01*
X120161505Y-99948597D01*
X120025965Y-100142169D01*
X120025964Y-100142171D01*
X119926098Y-100356335D01*
X119926094Y-100356344D01*
X119864938Y-100584586D01*
X119864936Y-100584596D01*
X119844341Y-100819999D01*
X119844341Y-100820000D01*
X119864936Y-101055403D01*
X119864938Y-101055413D01*
X119926094Y-101283655D01*
X119926096Y-101283659D01*
X119926097Y-101283663D01*
X120025964Y-101497830D01*
X120025965Y-101497830D01*
X120025967Y-101497834D01*
X120161501Y-101691395D01*
X120161506Y-101691402D01*
X120328597Y-101858493D01*
X120328603Y-101858498D01*
X120514158Y-101988425D01*
X120557783Y-102043002D01*
X120564977Y-102112500D01*
X120533454Y-102174855D01*
X120514158Y-102191575D01*
X120328597Y-102321505D01*
X120161505Y-102488597D01*
X120025965Y-102682169D01*
X120025964Y-102682171D01*
X119926098Y-102896335D01*
X119926094Y-102896344D01*
X119864938Y-103124586D01*
X119864936Y-103124596D01*
X119844341Y-103359999D01*
X119844341Y-103360000D01*
X114631500Y-103360000D01*
X114631500Y-90179999D01*
X148164538Y-90179999D01*
X148184337Y-90381031D01*
X148242978Y-90574345D01*
X148338198Y-90752488D01*
X148338203Y-90752495D01*
X148466352Y-90908647D01*
X148575016Y-90997824D01*
X148622506Y-91036798D01*
X148622509Y-91036799D01*
X148622511Y-91036801D01*
X148800654Y-91132021D01*
X148800656Y-91132021D01*
X148800659Y-91132023D01*
X148993967Y-91190662D01*
X149144620Y-91205500D01*
X149716262Y-91205500D01*
X149783301Y-91225185D01*
X149829056Y-91277989D01*
X149839000Y-91347147D01*
X149823649Y-91391500D01*
X149794022Y-91442813D01*
X149763669Y-91575803D01*
X149763668Y-91575804D01*
X149773861Y-91711825D01*
X149773861Y-91711827D01*
X149773862Y-91711828D01*
X149823697Y-91838805D01*
X149908745Y-91945453D01*
X150021450Y-92022293D01*
X150151797Y-92062500D01*
X150151798Y-92062500D01*
X150253909Y-92062500D01*
X150253910Y-92062500D01*
X150354883Y-92047281D01*
X150477781Y-91988096D01*
X150577775Y-91895316D01*
X150645978Y-91777184D01*
X150676331Y-91644197D01*
X150666138Y-91508172D01*
X150616303Y-91381195D01*
X150574757Y-91329097D01*
X150548348Y-91264411D01*
X150561105Y-91195715D01*
X150608976Y-91144822D01*
X150635705Y-91133125D01*
X150639341Y-91132023D01*
X150817494Y-91036798D01*
X150973647Y-90908647D01*
X151101798Y-90752494D01*
X151197023Y-90574341D01*
X151255662Y-90381033D01*
X151270445Y-90230936D01*
X152395631Y-90230936D01*
X152426442Y-90432063D01*
X152426445Y-90432075D01*
X152497111Y-90622881D01*
X152497115Y-90622888D01*
X152604745Y-90795567D01*
X152604747Y-90795569D01*
X152604748Y-90795571D01*
X152744941Y-90943053D01*
X152873344Y-91032424D01*
X152911949Y-91059294D01*
X152911950Y-91059294D01*
X152911951Y-91059295D01*
X153098942Y-91139540D01*
X153298259Y-91180500D01*
X154450743Y-91180500D01*
X154602439Y-91165074D01*
X154796579Y-91104162D01*
X154796580Y-91104161D01*
X154796588Y-91104159D01*
X154974502Y-91005409D01*
X155128895Y-90872866D01*
X155253448Y-90711958D01*
X155343060Y-90529271D01*
X155394063Y-90332285D01*
X155404369Y-90129064D01*
X155373556Y-89927929D01*
X155320865Y-89785659D01*
X155302888Y-89737118D01*
X155302887Y-89737117D01*
X155302886Y-89737113D01*
X155195252Y-89564429D01*
X155055059Y-89416947D01*
X154920373Y-89323203D01*
X154888050Y-89300705D01*
X154701056Y-89220459D01*
X154501741Y-89179500D01*
X153349258Y-89179500D01*
X153349257Y-89179500D01*
X153197560Y-89194925D01*
X153003420Y-89255837D01*
X153003405Y-89255844D01*
X152825500Y-89354589D01*
X152825495Y-89354592D01*
X152671106Y-89487132D01*
X152671104Y-89487134D01*
X152546554Y-89648037D01*
X152546553Y-89648040D01*
X152456940Y-89830728D01*
X152405937Y-90027714D01*
X152395631Y-90230936D01*
X151270445Y-90230936D01*
X151275462Y-90180000D01*
X151255662Y-89978967D01*
X151197023Y-89785659D01*
X151197021Y-89785656D01*
X151197021Y-89785654D01*
X151101801Y-89607511D01*
X151101799Y-89607509D01*
X151101798Y-89607506D01*
X151003012Y-89487134D01*
X150973647Y-89451352D01*
X150817495Y-89323203D01*
X150817488Y-89323198D01*
X150639345Y-89227978D01*
X150446031Y-89169337D01*
X150335900Y-89158490D01*
X150295380Y-89154500D01*
X149144620Y-89154500D01*
X149107433Y-89158162D01*
X148993968Y-89169337D01*
X148800654Y-89227978D01*
X148622511Y-89323198D01*
X148622504Y-89323203D01*
X148466352Y-89451352D01*
X148338203Y-89607504D01*
X148338198Y-89607511D01*
X148242978Y-89785654D01*
X148184337Y-89978968D01*
X148164538Y-90179999D01*
X114631500Y-90179999D01*
X114631500Y-78890157D01*
X114651185Y-78823118D01*
X114703989Y-78777363D01*
X114773147Y-78767419D01*
X114836703Y-78796444D01*
X114874291Y-78854593D01*
X114926145Y-79027800D01*
X115064555Y-79348670D01*
X115064561Y-79348683D01*
X115239289Y-79651322D01*
X115447972Y-79931631D01*
X115447976Y-79931636D01*
X115456147Y-79940297D01*
X115456148Y-79940298D01*
X116703665Y-78692781D01*
X116842855Y-78867320D01*
X117012299Y-79015358D01*
X117059808Y-79043743D01*
X115812817Y-80290733D01*
X115812818Y-80290734D01*
X115955480Y-80410442D01*
X116247461Y-80602480D01*
X116559739Y-80759314D01*
X116559745Y-80759316D01*
X116888130Y-80878838D01*
X116888133Y-80878839D01*
X117228171Y-80959429D01*
X117575276Y-80999999D01*
X117575277Y-81000000D01*
X117924723Y-81000000D01*
X117924723Y-80999999D01*
X118271827Y-80959429D01*
X118271829Y-80959429D01*
X118611866Y-80878839D01*
X118611869Y-80878838D01*
X118940254Y-80759316D01*
X118940260Y-80759314D01*
X119252538Y-80602480D01*
X119544515Y-80410445D01*
X119687180Y-80290734D01*
X119687181Y-80290733D01*
X118440125Y-79043678D01*
X118575747Y-78945144D01*
X118731239Y-78782512D01*
X118792801Y-78689248D01*
X120043850Y-79940297D01*
X120052032Y-79931625D01*
X120260710Y-79651322D01*
X120435438Y-79348683D01*
X120435444Y-79348670D01*
X120573854Y-79027800D01*
X120674083Y-78693011D01*
X120674085Y-78693002D01*
X120734763Y-78348880D01*
X120734764Y-78348869D01*
X120755084Y-78000003D01*
X120755084Y-77999996D01*
X120734764Y-77651130D01*
X120734763Y-77651119D01*
X120699300Y-77450000D01*
X134339364Y-77450000D01*
X134396567Y-77663486D01*
X134396570Y-77663492D01*
X134496399Y-77877578D01*
X134631894Y-78071082D01*
X134798917Y-78238105D01*
X134992421Y-78373600D01*
X135206507Y-78473429D01*
X135206516Y-78473433D01*
X135420000Y-78530634D01*
X135420000Y-77635501D01*
X135527685Y-77684680D01*
X135634237Y-77700000D01*
X135705763Y-77700000D01*
X135812315Y-77684680D01*
X135920000Y-77635501D01*
X135920000Y-78530633D01*
X136133483Y-78473433D01*
X136133492Y-78473429D01*
X136347578Y-78373600D01*
X136541082Y-78238105D01*
X136708105Y-78071082D01*
X136838119Y-77885405D01*
X136892696Y-77841781D01*
X136962195Y-77834588D01*
X137024549Y-77866110D01*
X137041269Y-77885405D01*
X137171505Y-78071401D01*
X137338599Y-78238495D01*
X137435384Y-78306264D01*
X137532165Y-78374032D01*
X137532167Y-78374033D01*
X137532170Y-78374035D01*
X137746337Y-78473903D01*
X137974592Y-78535063D01*
X138151034Y-78550500D01*
X138209999Y-78555659D01*
X138210000Y-78555659D01*
X138210001Y-78555659D01*
X138268966Y-78550500D01*
X138445408Y-78535063D01*
X138673663Y-78473903D01*
X138887830Y-78374035D01*
X139081401Y-78238495D01*
X139248495Y-78071401D01*
X139378424Y-77885842D01*
X139433002Y-77842217D01*
X139502500Y-77835023D01*
X139564855Y-77866546D01*
X139581575Y-77885842D01*
X139711281Y-78071082D01*
X139711505Y-78071401D01*
X139878599Y-78238495D01*
X139975384Y-78306264D01*
X140072165Y-78374032D01*
X140072167Y-78374033D01*
X140072170Y-78374035D01*
X140286337Y-78473903D01*
X140514592Y-78535063D01*
X140691034Y-78550500D01*
X140749999Y-78555659D01*
X140750000Y-78555659D01*
X140750001Y-78555659D01*
X140808966Y-78550500D01*
X140985408Y-78535063D01*
X141213663Y-78473903D01*
X141427830Y-78374035D01*
X141621401Y-78238495D01*
X141788495Y-78071401D01*
X141918424Y-77885842D01*
X141973002Y-77842217D01*
X142042500Y-77835023D01*
X142104855Y-77866546D01*
X142121575Y-77885842D01*
X142251281Y-78071082D01*
X142251505Y-78071401D01*
X142418599Y-78238495D01*
X142515384Y-78306264D01*
X142612165Y-78374032D01*
X142612167Y-78374033D01*
X142612170Y-78374035D01*
X142826337Y-78473903D01*
X143054592Y-78535063D01*
X143231034Y-78550500D01*
X143289999Y-78555659D01*
X143290000Y-78555659D01*
X143290001Y-78555659D01*
X143348966Y-78550500D01*
X143525408Y-78535063D01*
X143753663Y-78473903D01*
X143967830Y-78374035D01*
X144161401Y-78238495D01*
X144283329Y-78116566D01*
X144344648Y-78083084D01*
X144414340Y-78088068D01*
X144470274Y-78129939D01*
X144487189Y-78160917D01*
X144536202Y-78292328D01*
X144536206Y-78292335D01*
X144622452Y-78407544D01*
X144622455Y-78407547D01*
X144737664Y-78493793D01*
X144737671Y-78493797D01*
X144872517Y-78544091D01*
X144872516Y-78544091D01*
X144879444Y-78544835D01*
X144932127Y-78550500D01*
X146727872Y-78550499D01*
X146787483Y-78544091D01*
X146922331Y-78493796D01*
X147037546Y-78407546D01*
X147123796Y-78292331D01*
X147174091Y-78157483D01*
X147180500Y-78097873D01*
X147180499Y-76302128D01*
X147174091Y-76242517D01*
X147172810Y-76239083D01*
X147123797Y-76107671D01*
X147123793Y-76107664D01*
X147037547Y-75992455D01*
X147037544Y-75992452D01*
X146922335Y-75906206D01*
X146922328Y-75906202D01*
X146787482Y-75855908D01*
X146787483Y-75855908D01*
X146727883Y-75849501D01*
X146727881Y-75849500D01*
X146727873Y-75849500D01*
X146727864Y-75849500D01*
X144932129Y-75849500D01*
X144932123Y-75849501D01*
X144872516Y-75855908D01*
X144737671Y-75906202D01*
X144737664Y-75906206D01*
X144622455Y-75992452D01*
X144622452Y-75992455D01*
X144536206Y-76107664D01*
X144536203Y-76107669D01*
X144487189Y-76239083D01*
X144445317Y-76295016D01*
X144379853Y-76319433D01*
X144311580Y-76304581D01*
X144283326Y-76283430D01*
X144161402Y-76161506D01*
X144161395Y-76161501D01*
X143967834Y-76025967D01*
X143967830Y-76025965D01*
X143916660Y-76002104D01*
X143753663Y-75926097D01*
X143753659Y-75926096D01*
X143753655Y-75926094D01*
X143525413Y-75864938D01*
X143525403Y-75864936D01*
X143290001Y-75844341D01*
X143289999Y-75844341D01*
X143054596Y-75864936D01*
X143054586Y-75864938D01*
X142826344Y-75926094D01*
X142826335Y-75926098D01*
X142612171Y-76025964D01*
X142612169Y-76025965D01*
X142418597Y-76161505D01*
X142251505Y-76328597D01*
X142121575Y-76514158D01*
X142066998Y-76557783D01*
X141997500Y-76564977D01*
X141935145Y-76533454D01*
X141918425Y-76514158D01*
X141788494Y-76328597D01*
X141621402Y-76161506D01*
X141621395Y-76161501D01*
X141427834Y-76025967D01*
X141427830Y-76025965D01*
X141376660Y-76002104D01*
X141213663Y-75926097D01*
X141213659Y-75926096D01*
X141213655Y-75926094D01*
X140985413Y-75864938D01*
X140985403Y-75864936D01*
X140750001Y-75844341D01*
X140749999Y-75844341D01*
X140514596Y-75864936D01*
X140514586Y-75864938D01*
X140286344Y-75926094D01*
X140286335Y-75926098D01*
X140072171Y-76025964D01*
X140072169Y-76025965D01*
X139878597Y-76161505D01*
X139711505Y-76328597D01*
X139581575Y-76514158D01*
X139526998Y-76557783D01*
X139457500Y-76564977D01*
X139395145Y-76533454D01*
X139378425Y-76514158D01*
X139248494Y-76328597D01*
X139081402Y-76161506D01*
X139081395Y-76161501D01*
X138887834Y-76025967D01*
X138887830Y-76025965D01*
X138836660Y-76002104D01*
X138673663Y-75926097D01*
X138673659Y-75926096D01*
X138673655Y-75926094D01*
X138445413Y-75864938D01*
X138445403Y-75864936D01*
X138210001Y-75844341D01*
X138209999Y-75844341D01*
X137974596Y-75864936D01*
X137974586Y-75864938D01*
X137746344Y-75926094D01*
X137746335Y-75926098D01*
X137532171Y-76025964D01*
X137532169Y-76025965D01*
X137338597Y-76161505D01*
X137171508Y-76328594D01*
X137041269Y-76514595D01*
X136986692Y-76558219D01*
X136917193Y-76565412D01*
X136854839Y-76533890D01*
X136838119Y-76514594D01*
X136708113Y-76328926D01*
X136708108Y-76328920D01*
X136541082Y-76161894D01*
X136347578Y-76026399D01*
X136133492Y-75926570D01*
X136133486Y-75926567D01*
X135920000Y-75869364D01*
X135920000Y-76764498D01*
X135812315Y-76715320D01*
X135705763Y-76700000D01*
X135634237Y-76700000D01*
X135527685Y-76715320D01*
X135420000Y-76764498D01*
X135420000Y-75869364D01*
X135419999Y-75869364D01*
X135206513Y-75926567D01*
X135206507Y-75926570D01*
X134992422Y-76026399D01*
X134992420Y-76026400D01*
X134798926Y-76161886D01*
X134798920Y-76161891D01*
X134631891Y-76328920D01*
X134631886Y-76328926D01*
X134496400Y-76522420D01*
X134496399Y-76522422D01*
X134396570Y-76736507D01*
X134396567Y-76736513D01*
X134339364Y-76949999D01*
X134339364Y-76950000D01*
X135236314Y-76950000D01*
X135210507Y-76990156D01*
X135170000Y-77128111D01*
X135170000Y-77271889D01*
X135210507Y-77409844D01*
X135236314Y-77450000D01*
X134339364Y-77450000D01*
X120699300Y-77450000D01*
X120674085Y-77306997D01*
X120674083Y-77306988D01*
X120573854Y-76972199D01*
X120435444Y-76651329D01*
X120435438Y-76651316D01*
X120348076Y-76500000D01*
X125667517Y-76500000D01*
X125687365Y-76650757D01*
X125687365Y-76650758D01*
X125745555Y-76791242D01*
X125771441Y-76824977D01*
X125838122Y-76911878D01*
X125906821Y-76964592D01*
X125958757Y-77004444D01*
X125958758Y-77004444D01*
X125958759Y-77004445D01*
X126099242Y-77062635D01*
X126212151Y-77077500D01*
X126212158Y-77077500D01*
X126287842Y-77077500D01*
X126287849Y-77077500D01*
X126400758Y-77062635D01*
X126541241Y-77004445D01*
X126661878Y-76911878D01*
X126754445Y-76791242D01*
X126812635Y-76650758D01*
X126832483Y-76500000D01*
X128667517Y-76500000D01*
X128687365Y-76650757D01*
X128687365Y-76650758D01*
X128745555Y-76791242D01*
X128771441Y-76824977D01*
X128838122Y-76911878D01*
X128906821Y-76964592D01*
X128958757Y-77004444D01*
X128958758Y-77004444D01*
X128958759Y-77004445D01*
X129099242Y-77062635D01*
X129212151Y-77077500D01*
X129212158Y-77077500D01*
X129287842Y-77077500D01*
X129287849Y-77077500D01*
X129400758Y-77062635D01*
X129541241Y-77004445D01*
X129661878Y-76911878D01*
X129754445Y-76791242D01*
X129812635Y-76650758D01*
X129832483Y-76500000D01*
X129812635Y-76349242D01*
X129754445Y-76208759D01*
X129754444Y-76208758D01*
X129754444Y-76208757D01*
X129676878Y-76107671D01*
X129661878Y-76088122D01*
X129601559Y-76041838D01*
X129541242Y-75995555D01*
X129470999Y-75966459D01*
X129400758Y-75937365D01*
X129386644Y-75935506D01*
X129287856Y-75922500D01*
X129287849Y-75922500D01*
X129212151Y-75922500D01*
X129212143Y-75922500D01*
X129099242Y-75937365D01*
X129099241Y-75937365D01*
X128958757Y-75995555D01*
X128838123Y-76088120D01*
X128745553Y-76208760D01*
X128687366Y-76349238D01*
X128687365Y-76349242D01*
X128667517Y-76499999D01*
X128667517Y-76500000D01*
X126832483Y-76500000D01*
X126812635Y-76349242D01*
X126754445Y-76208759D01*
X126754444Y-76208758D01*
X126754444Y-76208757D01*
X126676878Y-76107671D01*
X126661878Y-76088122D01*
X126601559Y-76041838D01*
X126541242Y-75995555D01*
X126470999Y-75966459D01*
X126400758Y-75937365D01*
X126386644Y-75935506D01*
X126287856Y-75922500D01*
X126287849Y-75922500D01*
X126212151Y-75922500D01*
X126212143Y-75922500D01*
X126099242Y-75937365D01*
X126099241Y-75937365D01*
X125958757Y-75995555D01*
X125838123Y-76088120D01*
X125745553Y-76208760D01*
X125687366Y-76349238D01*
X125687365Y-76349242D01*
X125667517Y-76499999D01*
X125667517Y-76500000D01*
X120348076Y-76500000D01*
X120260710Y-76348677D01*
X120052029Y-76068371D01*
X120043850Y-76059701D01*
X120043850Y-76059700D01*
X118796333Y-77307217D01*
X118657145Y-77132680D01*
X118487701Y-76984642D01*
X118440190Y-76956255D01*
X119687181Y-75709265D01*
X119687180Y-75709264D01*
X119544519Y-75589557D01*
X119252538Y-75397519D01*
X118940260Y-75240685D01*
X118940254Y-75240683D01*
X118614234Y-75122022D01*
X118557970Y-75080596D01*
X118533034Y-75015327D01*
X118547344Y-74946939D01*
X118596355Y-74897143D01*
X118656644Y-74881500D01*
X152343356Y-74881500D01*
X152410395Y-74901185D01*
G37*
%TD.AperFunction*%
%TD*%
M02*
