M48
; DRILL file {KiCad 7.0.5} date Sat Jun 10 20:52:43 2023
; FORMAT={-:-/ absolute / inch / decimal}
; #@! TF.CreationDate,2023-06-10T20:52:43-07:00
; #@! TF.GenerationSoftware,Kicad,Pcbnew,7.0.5
; #@! TF.FileFunction,MixedPlating,1,2
FMAT,2
INCH
; #@! TA.AperFunction,Plated,PTH,ViaDrill
T1C0.0118
; #@! TA.AperFunction,Plated,PTH,ComponentDrill
T2C0.0236
; #@! TA.AperFunction,Plated,PTH,ComponentDrill
T3C0.0394
; #@! TA.AperFunction,Plated,PTH,ComponentDrill
T4C0.0984
; #@! TA.AperFunction,NonPlated,NPTH,ComponentDrill
T5C0.0256
; #@! TA.AperFunction,NonPlated,NPTH,ComponentDrill
T6C0.0354
%
G90
G05
T1
X4.8622Y-3.8701
X4.9252Y-3.7283
X4.9606Y-3.3465
X4.9614Y-3.8425
X5.0079Y-4.3701
X5.1102Y-3.8315
X5.1181Y-3.1457
X5.248Y-3.5079
X5.252Y-3.0394
X5.3937Y-3.311
X5.4291Y-3.7638
X5.6339Y-4.1102
X5.6654Y-4.1102
X5.6693Y-3.815
X5.6693Y-4.0787
X5.7087Y-3.6496
X5.748Y-3.8031
X5.815Y-3.8465
X5.8228Y-3.5945
X5.8307Y-3.252
X6.1063Y-4.1575
T3
X4.7717Y-3.8693
X4.7717Y-3.9693
X4.7717Y-4.0693
X4.7717Y-4.1693
X5.1181Y-4.3701
X5.2181Y-4.3701
X5.3181Y-4.3701
X5.3413Y-3.0394
X5.4181Y-4.3701
X5.4413Y-3.0394
X5.5181Y-4.3701
X5.5413Y-3.0394
X5.6413Y-3.0394
X5.7413Y-3.0394
T4
X4.6358Y-3.0709
X4.6358Y-4.3701
X6.0335Y-3.0709
X6.0335Y-4.3701
T5
X5.9142Y-3.6067
X5.9142Y-3.8343
T6
X4.9705Y-3.0118
X5.0886Y-3.0118
T2
G00X5.8728Y-3.5504
M15
G01X5.9161Y-3.5504
M16
G05
G00X5.8728Y-3.8906
M15
G01X5.9161Y-3.8906
M16
G05
G00X6.0433Y-3.5504
M15
G01X6.0748Y-3.5504
M16
G05
G00X6.0433Y-3.8906
M15
G01X6.0748Y-3.8906
M16
G05
T0
M30
