%TF.GenerationSoftware,KiCad,Pcbnew,7.0.5*%
%TF.CreationDate,2023-06-10T20:52:47-07:00*%
%TF.ProjectId,st-breakout,73742d62-7265-4616-9b6f-75742e6b6963,rev?*%
%TF.SameCoordinates,Original*%
%TF.FileFunction,Paste,Top*%
%TF.FilePolarity,Positive*%
%FSLAX46Y46*%
G04 Gerber Fmt 4.6, Leading zero omitted, Abs format (unit mm)*
G04 Created by KiCad (PCBNEW 7.0.5) date 2023-06-10 20:52:47*
%MOMM*%
%LPD*%
G01*
G04 APERTURE LIST*
G04 Aperture macros list*
%AMRoundRect*
0 Rectangle with rounded corners*
0 $1 Rounding radius*
0 $2 $3 $4 $5 $6 $7 $8 $9 X,Y pos of 4 corners*
0 Add a 4 corners polygon primitive as box body*
4,1,4,$2,$3,$4,$5,$6,$7,$8,$9,$2,$3,0*
0 Add four circle primitives for the rounded corners*
1,1,$1+$1,$2,$3*
1,1,$1+$1,$4,$5*
1,1,$1+$1,$6,$7*
1,1,$1+$1,$8,$9*
0 Add four rect primitives between the rounded corners*
20,1,$1+$1,$2,$3,$4,$5,0*
20,1,$1+$1,$4,$5,$6,$7,0*
20,1,$1+$1,$6,$7,$8,$9,0*
20,1,$1+$1,$8,$9,$2,$3,0*%
G04 Aperture macros list end*
%ADD10R,1.000000X0.800000*%
%ADD11R,0.700000X1.500000*%
%ADD12R,1.150000X0.600000*%
%ADD13R,1.150000X0.300000*%
%ADD14RoundRect,0.135000X-0.135000X-0.185000X0.135000X-0.185000X0.135000X0.185000X-0.135000X0.185000X0*%
%ADD15RoundRect,0.225000X0.225000X0.250000X-0.225000X0.250000X-0.225000X-0.250000X0.225000X-0.250000X0*%
%ADD16RoundRect,0.140000X0.170000X-0.140000X0.170000X0.140000X-0.170000X0.140000X-0.170000X-0.140000X0*%
%ADD17RoundRect,0.218750X0.256250X-0.218750X0.256250X0.218750X-0.256250X0.218750X-0.256250X-0.218750X0*%
%ADD18R,2.000000X4.500000*%
%ADD19RoundRect,0.140000X-0.170000X0.140000X-0.170000X-0.140000X0.170000X-0.140000X0.170000X0.140000X0*%
%ADD20RoundRect,0.135000X0.185000X-0.135000X0.185000X0.135000X-0.185000X0.135000X-0.185000X-0.135000X0*%
%ADD21RoundRect,0.140000X-0.140000X-0.170000X0.140000X-0.170000X0.140000X0.170000X-0.140000X0.170000X0*%
%ADD22RoundRect,0.140000X0.140000X0.170000X-0.140000X0.170000X-0.140000X-0.170000X0.140000X-0.170000X0*%
%ADD23RoundRect,0.218750X0.218750X0.256250X-0.218750X0.256250X-0.218750X-0.256250X0.218750X-0.256250X0*%
%ADD24RoundRect,0.225000X-0.250000X0.225000X-0.250000X-0.225000X0.250000X-0.225000X0.250000X0.225000X0*%
%ADD25RoundRect,0.135000X0.135000X0.185000X-0.135000X0.185000X-0.135000X-0.185000X0.135000X-0.185000X0*%
%ADD26RoundRect,0.250000X0.250000X0.475000X-0.250000X0.475000X-0.250000X-0.475000X0.250000X-0.475000X0*%
%ADD27RoundRect,0.100000X-0.637500X-0.100000X0.637500X-0.100000X0.637500X0.100000X-0.637500X0.100000X0*%
%ADD28RoundRect,0.150000X-0.150000X0.512500X-0.150000X-0.512500X0.150000X-0.512500X0.150000X0.512500X0*%
%ADD29RoundRect,0.218750X-0.256250X0.218750X-0.256250X-0.218750X0.256250X-0.218750X0.256250X0.218750X0*%
%ADD30RoundRect,0.135000X-0.185000X0.135000X-0.185000X-0.135000X0.185000X-0.135000X0.185000X0.135000X0*%
%ADD31RoundRect,0.225000X-0.225000X-0.250000X0.225000X-0.250000X0.225000X0.250000X-0.225000X0.250000X0*%
G04 APERTURE END LIST*
D10*
%TO.C,SW1*%
X131400000Y-77610000D03*
X131400000Y-75400000D03*
X124100000Y-77610000D03*
X124100000Y-75400000D03*
D11*
X130000000Y-78260000D03*
X127000000Y-78260000D03*
X125500000Y-78260000D03*
%TD*%
D12*
%TO.C,J5*%
X149145000Y-97700000D03*
X149145000Y-91300000D03*
X149145000Y-96900000D03*
X149145000Y-92100000D03*
D13*
X149145000Y-94250000D03*
X149145000Y-94750000D03*
X149145000Y-93750000D03*
X149145000Y-93250000D03*
X149145000Y-92750000D03*
X149145000Y-95250000D03*
X149145000Y-95750000D03*
X149145000Y-96250000D03*
%TD*%
D14*
%TO.C,R5*%
X146055000Y-95750000D03*
X147075000Y-95750000D03*
%TD*%
D15*
%TO.C,C2*%
X145525000Y-98025000D03*
X143975000Y-98025000D03*
%TD*%
D16*
%TO.C,C11*%
X125000000Y-86000000D03*
X125000000Y-85040000D03*
%TD*%
D17*
%TO.C,L1*%
X148500000Y-102250000D03*
X148500000Y-100675000D03*
%TD*%
D18*
%TO.C,Y1*%
X120300000Y-84400000D03*
X120300000Y-92900000D03*
%TD*%
D19*
%TO.C,C12*%
X125100000Y-92800000D03*
X125100000Y-93760000D03*
%TD*%
D20*
%TO.C,R4*%
X143250000Y-84320000D03*
X143250000Y-83300000D03*
%TD*%
%TO.C,R3*%
X127000000Y-83300000D03*
X127000000Y-82280000D03*
%TD*%
D21*
%TO.C,C7*%
X145440000Y-104000000D03*
X146400000Y-104000000D03*
%TD*%
D22*
%TO.C,C9*%
X127860000Y-97600000D03*
X126900000Y-97600000D03*
%TD*%
D23*
%TO.C,D2*%
X155100000Y-102250000D03*
X153525000Y-102250000D03*
%TD*%
D24*
%TO.C,C5*%
X129800000Y-94600000D03*
X129800000Y-96150000D03*
%TD*%
D25*
%TO.C,R7*%
X128300000Y-92800000D03*
X127280000Y-92800000D03*
%TD*%
D26*
%TO.C,C8*%
X145375000Y-105800000D03*
X143475000Y-105800000D03*
%TD*%
D27*
%TO.C,U2*%
X133575000Y-92310000D03*
X133575000Y-92960000D03*
X133575000Y-93610000D03*
X133575000Y-94260000D03*
X133575000Y-94910000D03*
X133575000Y-95560000D03*
X133575000Y-96210000D03*
X133575000Y-96860000D03*
X133575000Y-97510000D03*
X133575000Y-98160000D03*
X139300000Y-98160000D03*
X139300000Y-97510000D03*
X139300000Y-96860000D03*
X139300000Y-96210000D03*
X139300000Y-95560000D03*
X139300000Y-94910000D03*
X139300000Y-94260000D03*
X139300000Y-93610000D03*
X139300000Y-92960000D03*
X139300000Y-92310000D03*
%TD*%
D20*
%TO.C,R1*%
X137000000Y-86250000D03*
X137000000Y-85230000D03*
%TD*%
D28*
%TO.C,U1*%
X146400000Y-100000000D03*
X145450000Y-100000000D03*
X144500000Y-100000000D03*
X144500000Y-102275000D03*
X145450000Y-102275000D03*
X146400000Y-102275000D03*
%TD*%
D29*
%TO.C,FB1*%
X127879500Y-94600000D03*
X127879500Y-96175000D03*
%TD*%
D30*
%TO.C,R2*%
X155100000Y-103650000D03*
X155100000Y-104670000D03*
%TD*%
D19*
%TO.C,C4*%
X141150000Y-95150000D03*
X141150000Y-96110000D03*
%TD*%
D31*
%TO.C,C3*%
X146550000Y-83800000D03*
X148100000Y-83800000D03*
%TD*%
D22*
%TO.C,C1*%
X135250000Y-89060000D03*
X134290000Y-89060000D03*
%TD*%
D14*
%TO.C,R6*%
X146030000Y-92725000D03*
X147050000Y-92725000D03*
%TD*%
D29*
%TO.C,D1*%
X137000000Y-87925000D03*
X137000000Y-89500000D03*
%TD*%
D19*
%TO.C,C6*%
X131629500Y-94946000D03*
X131629500Y-95906000D03*
%TD*%
D26*
%TO.C,C10*%
X143500000Y-107950000D03*
X145400000Y-107950000D03*
%TD*%
M02*
