%TF.GenerationSoftware,KiCad,Pcbnew,7.0.5*%
%TF.CreationDate,2023-06-10T20:49:47-07:00*%
%TF.ProjectId,st-breakout,73742d62-7265-4616-9b6f-75742e6b6963,rev?*%
%TF.SameCoordinates,Original*%
%TF.FileFunction,Legend,Top*%
%TF.FilePolarity,Positive*%
%FSLAX46Y46*%
G04 Gerber Fmt 4.6, Leading zero omitted, Abs format (unit mm)*
G04 Created by KiCad (PCBNEW 7.0.5) date 2023-06-10 20:49:47*
%MOMM*%
%LPD*%
G01*
G04 APERTURE LIST*
%ADD10C,0.150000*%
%ADD11C,0.120000*%
%ADD12C,0.200000*%
G04 APERTURE END LIST*
D10*
X123393922Y-100369819D02*
X123965350Y-100369819D01*
X123679636Y-101369819D02*
X123679636Y-100369819D01*
X124203446Y-100369819D02*
X124870112Y-101369819D01*
X124870112Y-100369819D02*
X124203446Y-101369819D01*
X124008207Y-103769819D02*
X123674874Y-103293628D01*
X123436779Y-103769819D02*
X123436779Y-102769819D01*
X123436779Y-102769819D02*
X123817731Y-102769819D01*
X123817731Y-102769819D02*
X123912969Y-102817438D01*
X123912969Y-102817438D02*
X123960588Y-102865057D01*
X123960588Y-102865057D02*
X124008207Y-102960295D01*
X124008207Y-102960295D02*
X124008207Y-103103152D01*
X124008207Y-103103152D02*
X123960588Y-103198390D01*
X123960588Y-103198390D02*
X123912969Y-103246009D01*
X123912969Y-103246009D02*
X123817731Y-103293628D01*
X123817731Y-103293628D02*
X123436779Y-103293628D01*
X124341541Y-102769819D02*
X125008207Y-103769819D01*
X125008207Y-102769819D02*
X124341541Y-103769819D01*
X117489223Y-103703696D02*
X118501128Y-103703696D01*
X118501128Y-103703696D02*
X118620176Y-103644173D01*
X118620176Y-103644173D02*
X118679700Y-103584649D01*
X118679700Y-103584649D02*
X118739223Y-103465601D01*
X118739223Y-103465601D02*
X118739223Y-103227506D01*
X118739223Y-103227506D02*
X118679700Y-103108458D01*
X118679700Y-103108458D02*
X118620176Y-103048935D01*
X118620176Y-103048935D02*
X118501128Y-102989411D01*
X118501128Y-102989411D02*
X117489223Y-102989411D01*
X118382080Y-102453696D02*
X118382080Y-101858458D01*
X118739223Y-102572744D02*
X117489223Y-102156077D01*
X117489223Y-102156077D02*
X118739223Y-101739411D01*
X118739223Y-100608458D02*
X118143985Y-101025124D01*
X118739223Y-101322743D02*
X117489223Y-101322743D01*
X117489223Y-101322743D02*
X117489223Y-100846553D01*
X117489223Y-100846553D02*
X117548747Y-100727505D01*
X117548747Y-100727505D02*
X117608271Y-100667982D01*
X117608271Y-100667982D02*
X117727319Y-100608458D01*
X117727319Y-100608458D02*
X117905890Y-100608458D01*
X117905890Y-100608458D02*
X118024938Y-100667982D01*
X118024938Y-100667982D02*
X118084461Y-100727505D01*
X118084461Y-100727505D02*
X118143985Y-100846553D01*
X118143985Y-100846553D02*
X118143985Y-101322743D01*
X117489223Y-100251315D02*
X117489223Y-99537029D01*
X118739223Y-99894172D02*
X117489223Y-99894172D01*
X124436779Y-80288866D02*
X125198684Y-80288866D01*
X124817731Y-80669819D02*
X124817731Y-79907914D01*
X131170112Y-80046009D02*
X131312969Y-80093628D01*
X131312969Y-80093628D02*
X131360588Y-80141247D01*
X131360588Y-80141247D02*
X131408207Y-80236485D01*
X131408207Y-80236485D02*
X131408207Y-80379342D01*
X131408207Y-80379342D02*
X131360588Y-80474580D01*
X131360588Y-80474580D02*
X131312969Y-80522200D01*
X131312969Y-80522200D02*
X131217731Y-80569819D01*
X131217731Y-80569819D02*
X130836779Y-80569819D01*
X130836779Y-80569819D02*
X130836779Y-79569819D01*
X130836779Y-79569819D02*
X131170112Y-79569819D01*
X131170112Y-79569819D02*
X131265350Y-79617438D01*
X131265350Y-79617438D02*
X131312969Y-79665057D01*
X131312969Y-79665057D02*
X131360588Y-79760295D01*
X131360588Y-79760295D02*
X131360588Y-79855533D01*
X131360588Y-79855533D02*
X131312969Y-79950771D01*
X131312969Y-79950771D02*
X131265350Y-79998390D01*
X131265350Y-79998390D02*
X131170112Y-80046009D01*
X131170112Y-80046009D02*
X130836779Y-80046009D01*
X132027255Y-79569819D02*
X132217731Y-79569819D01*
X132217731Y-79569819D02*
X132312969Y-79617438D01*
X132312969Y-79617438D02*
X132408207Y-79712676D01*
X132408207Y-79712676D02*
X132455826Y-79903152D01*
X132455826Y-79903152D02*
X132455826Y-80236485D01*
X132455826Y-80236485D02*
X132408207Y-80426961D01*
X132408207Y-80426961D02*
X132312969Y-80522200D01*
X132312969Y-80522200D02*
X132217731Y-80569819D01*
X132217731Y-80569819D02*
X132027255Y-80569819D01*
X132027255Y-80569819D02*
X131932017Y-80522200D01*
X131932017Y-80522200D02*
X131836779Y-80426961D01*
X131836779Y-80426961D02*
X131789160Y-80236485D01*
X131789160Y-80236485D02*
X131789160Y-79903152D01*
X131789160Y-79903152D02*
X131836779Y-79712676D01*
X131836779Y-79712676D02*
X131932017Y-79617438D01*
X131932017Y-79617438D02*
X132027255Y-79569819D01*
X133074874Y-79569819D02*
X133265350Y-79569819D01*
X133265350Y-79569819D02*
X133360588Y-79617438D01*
X133360588Y-79617438D02*
X133455826Y-79712676D01*
X133455826Y-79712676D02*
X133503445Y-79903152D01*
X133503445Y-79903152D02*
X133503445Y-80236485D01*
X133503445Y-80236485D02*
X133455826Y-80426961D01*
X133455826Y-80426961D02*
X133360588Y-80522200D01*
X133360588Y-80522200D02*
X133265350Y-80569819D01*
X133265350Y-80569819D02*
X133074874Y-80569819D01*
X133074874Y-80569819D02*
X132979636Y-80522200D01*
X132979636Y-80522200D02*
X132884398Y-80426961D01*
X132884398Y-80426961D02*
X132836779Y-80236485D01*
X132836779Y-80236485D02*
X132836779Y-79903152D01*
X132836779Y-79903152D02*
X132884398Y-79712676D01*
X132884398Y-79712676D02*
X132979636Y-79617438D01*
X132979636Y-79617438D02*
X133074874Y-79569819D01*
X133789160Y-79569819D02*
X134360588Y-79569819D01*
X134074874Y-80569819D02*
X134074874Y-79569819D01*
X137530180Y-79436779D02*
X138530180Y-79436779D01*
X138530180Y-79436779D02*
X137530180Y-80008207D01*
X137530180Y-80008207D02*
X138530180Y-80008207D01*
X137530180Y-81055826D02*
X138006371Y-80722493D01*
X137530180Y-80484398D02*
X138530180Y-80484398D01*
X138530180Y-80484398D02*
X138530180Y-80865350D01*
X138530180Y-80865350D02*
X138482561Y-80960588D01*
X138482561Y-80960588D02*
X138434942Y-81008207D01*
X138434942Y-81008207D02*
X138339704Y-81055826D01*
X138339704Y-81055826D02*
X138196847Y-81055826D01*
X138196847Y-81055826D02*
X138101609Y-81008207D01*
X138101609Y-81008207D02*
X138053990Y-80960588D01*
X138053990Y-80960588D02*
X138006371Y-80865350D01*
X138006371Y-80865350D02*
X138006371Y-80484398D01*
X137577800Y-81436779D02*
X137530180Y-81579636D01*
X137530180Y-81579636D02*
X137530180Y-81817731D01*
X137530180Y-81817731D02*
X137577800Y-81912969D01*
X137577800Y-81912969D02*
X137625419Y-81960588D01*
X137625419Y-81960588D02*
X137720657Y-82008207D01*
X137720657Y-82008207D02*
X137815895Y-82008207D01*
X137815895Y-82008207D02*
X137911133Y-81960588D01*
X137911133Y-81960588D02*
X137958752Y-81912969D01*
X137958752Y-81912969D02*
X138006371Y-81817731D01*
X138006371Y-81817731D02*
X138053990Y-81627255D01*
X138053990Y-81627255D02*
X138101609Y-81532017D01*
X138101609Y-81532017D02*
X138149228Y-81484398D01*
X138149228Y-81484398D02*
X138244466Y-81436779D01*
X138244466Y-81436779D02*
X138339704Y-81436779D01*
X138339704Y-81436779D02*
X138434942Y-81484398D01*
X138434942Y-81484398D02*
X138482561Y-81532017D01*
X138482561Y-81532017D02*
X138530180Y-81627255D01*
X138530180Y-81627255D02*
X138530180Y-81865350D01*
X138530180Y-81865350D02*
X138482561Y-82008207D01*
X138530180Y-82293922D02*
X138530180Y-82865350D01*
X137530180Y-82579636D02*
X138530180Y-82579636D01*
X140325419Y-80108207D02*
X140277800Y-80060588D01*
X140277800Y-80060588D02*
X140230180Y-79917731D01*
X140230180Y-79917731D02*
X140230180Y-79822493D01*
X140230180Y-79822493D02*
X140277800Y-79679636D01*
X140277800Y-79679636D02*
X140373038Y-79584398D01*
X140373038Y-79584398D02*
X140468276Y-79536779D01*
X140468276Y-79536779D02*
X140658752Y-79489160D01*
X140658752Y-79489160D02*
X140801609Y-79489160D01*
X140801609Y-79489160D02*
X140992085Y-79536779D01*
X140992085Y-79536779D02*
X141087323Y-79584398D01*
X141087323Y-79584398D02*
X141182561Y-79679636D01*
X141182561Y-79679636D02*
X141230180Y-79822493D01*
X141230180Y-79822493D02*
X141230180Y-79917731D01*
X141230180Y-79917731D02*
X141182561Y-80060588D01*
X141182561Y-80060588D02*
X141134942Y-80108207D01*
X140230180Y-81012969D02*
X140230180Y-80536779D01*
X140230180Y-80536779D02*
X141230180Y-80536779D01*
X140230180Y-81346303D02*
X141230180Y-81346303D01*
X140230180Y-81917731D02*
X140801609Y-81489160D01*
X141230180Y-81917731D02*
X140658752Y-81346303D01*
X143769819Y-80563220D02*
X142769819Y-80563220D01*
X142769819Y-79896554D02*
X142769819Y-79706078D01*
X142769819Y-79706078D02*
X142817438Y-79610840D01*
X142817438Y-79610840D02*
X142912676Y-79515602D01*
X142912676Y-79515602D02*
X143103152Y-79467983D01*
X143103152Y-79467983D02*
X143436485Y-79467983D01*
X143436485Y-79467983D02*
X143626961Y-79515602D01*
X143626961Y-79515602D02*
X143722200Y-79610840D01*
X143722200Y-79610840D02*
X143769819Y-79706078D01*
X143769819Y-79706078D02*
X143769819Y-79896554D01*
X143769819Y-79896554D02*
X143722200Y-79991792D01*
X143722200Y-79991792D02*
X143626961Y-80087030D01*
X143626961Y-80087030D02*
X143436485Y-80134649D01*
X143436485Y-80134649D02*
X143103152Y-80134649D01*
X143103152Y-80134649D02*
X142912676Y-80087030D01*
X142912676Y-80087030D02*
X142817438Y-79991792D01*
X142817438Y-79991792D02*
X142769819Y-79896554D01*
X147336779Y-81279700D02*
X147515350Y-81339223D01*
X147515350Y-81339223D02*
X147812969Y-81339223D01*
X147812969Y-81339223D02*
X147932017Y-81279700D01*
X147932017Y-81279700D02*
X147991541Y-81220176D01*
X147991541Y-81220176D02*
X148051064Y-81101128D01*
X148051064Y-81101128D02*
X148051064Y-80982080D01*
X148051064Y-80982080D02*
X147991541Y-80863033D01*
X147991541Y-80863033D02*
X147932017Y-80803509D01*
X147932017Y-80803509D02*
X147812969Y-80743985D01*
X147812969Y-80743985D02*
X147574874Y-80684461D01*
X147574874Y-80684461D02*
X147455826Y-80624938D01*
X147455826Y-80624938D02*
X147396303Y-80565414D01*
X147396303Y-80565414D02*
X147336779Y-80446366D01*
X147336779Y-80446366D02*
X147336779Y-80327319D01*
X147336779Y-80327319D02*
X147396303Y-80208271D01*
X147396303Y-80208271D02*
X147455826Y-80148747D01*
X147455826Y-80148747D02*
X147574874Y-80089223D01*
X147574874Y-80089223D02*
X147872493Y-80089223D01*
X147872493Y-80089223D02*
X148051064Y-80148747D01*
X148467731Y-80089223D02*
X148765350Y-81339223D01*
X148765350Y-81339223D02*
X149003445Y-80446366D01*
X149003445Y-80446366D02*
X149241540Y-81339223D01*
X149241540Y-81339223D02*
X149539160Y-80089223D01*
X150015350Y-81339223D02*
X150015350Y-80089223D01*
X150015350Y-80089223D02*
X150312969Y-80089223D01*
X150312969Y-80089223D02*
X150491540Y-80148747D01*
X150491540Y-80148747D02*
X150610588Y-80267795D01*
X150610588Y-80267795D02*
X150670111Y-80386842D01*
X150670111Y-80386842D02*
X150729635Y-80624938D01*
X150729635Y-80624938D02*
X150729635Y-80803509D01*
X150729635Y-80803509D02*
X150670111Y-81041604D01*
X150670111Y-81041604D02*
X150610588Y-81160652D01*
X150610588Y-81160652D02*
X150491540Y-81279700D01*
X150491540Y-81279700D02*
X150312969Y-81339223D01*
X150312969Y-81339223D02*
X150015350Y-81339223D01*
X146636779Y-79588866D02*
X147398684Y-79588866D01*
X147017731Y-79969819D02*
X147017731Y-79207914D01*
X123736779Y-105788866D02*
X124498684Y-105788866D01*
X124117731Y-106169819D02*
X124117731Y-105407914D01*
X139836779Y-108188866D02*
X140598684Y-108188866D01*
X140217731Y-108569819D02*
X140217731Y-107807914D01*
X131830180Y-105736779D02*
X132830180Y-105736779D01*
X132830180Y-105736779D02*
X132115895Y-106070112D01*
X132115895Y-106070112D02*
X132830180Y-106403445D01*
X132830180Y-106403445D02*
X131830180Y-106403445D01*
X132830180Y-107070112D02*
X132830180Y-107260588D01*
X132830180Y-107260588D02*
X132782561Y-107355826D01*
X132782561Y-107355826D02*
X132687323Y-107451064D01*
X132687323Y-107451064D02*
X132496847Y-107498683D01*
X132496847Y-107498683D02*
X132163514Y-107498683D01*
X132163514Y-107498683D02*
X131973038Y-107451064D01*
X131973038Y-107451064D02*
X131877800Y-107355826D01*
X131877800Y-107355826D02*
X131830180Y-107260588D01*
X131830180Y-107260588D02*
X131830180Y-107070112D01*
X131830180Y-107070112D02*
X131877800Y-106974874D01*
X131877800Y-106974874D02*
X131973038Y-106879636D01*
X131973038Y-106879636D02*
X132163514Y-106832017D01*
X132163514Y-106832017D02*
X132496847Y-106832017D01*
X132496847Y-106832017D02*
X132687323Y-106879636D01*
X132687323Y-106879636D02*
X132782561Y-106974874D01*
X132782561Y-106974874D02*
X132830180Y-107070112D01*
X131877800Y-107879636D02*
X131830180Y-108022493D01*
X131830180Y-108022493D02*
X131830180Y-108260588D01*
X131830180Y-108260588D02*
X131877800Y-108355826D01*
X131877800Y-108355826D02*
X131925419Y-108403445D01*
X131925419Y-108403445D02*
X132020657Y-108451064D01*
X132020657Y-108451064D02*
X132115895Y-108451064D01*
X132115895Y-108451064D02*
X132211133Y-108403445D01*
X132211133Y-108403445D02*
X132258752Y-108355826D01*
X132258752Y-108355826D02*
X132306371Y-108260588D01*
X132306371Y-108260588D02*
X132353990Y-108070112D01*
X132353990Y-108070112D02*
X132401609Y-107974874D01*
X132401609Y-107974874D02*
X132449228Y-107927255D01*
X132449228Y-107927255D02*
X132544466Y-107879636D01*
X132544466Y-107879636D02*
X132639704Y-107879636D01*
X132639704Y-107879636D02*
X132734942Y-107927255D01*
X132734942Y-107927255D02*
X132782561Y-107974874D01*
X132782561Y-107974874D02*
X132830180Y-108070112D01*
X132830180Y-108070112D02*
X132830180Y-108308207D01*
X132830180Y-108308207D02*
X132782561Y-108451064D01*
X131830180Y-108879636D02*
X132830180Y-108879636D01*
X134430180Y-105736779D02*
X135430180Y-105736779D01*
X135430180Y-105736779D02*
X134715895Y-106070112D01*
X134715895Y-106070112D02*
X135430180Y-106403445D01*
X135430180Y-106403445D02*
X134430180Y-106403445D01*
X134430180Y-106879636D02*
X135430180Y-106879636D01*
X134477800Y-107308207D02*
X134430180Y-107451064D01*
X134430180Y-107451064D02*
X134430180Y-107689159D01*
X134430180Y-107689159D02*
X134477800Y-107784397D01*
X134477800Y-107784397D02*
X134525419Y-107832016D01*
X134525419Y-107832016D02*
X134620657Y-107879635D01*
X134620657Y-107879635D02*
X134715895Y-107879635D01*
X134715895Y-107879635D02*
X134811133Y-107832016D01*
X134811133Y-107832016D02*
X134858752Y-107784397D01*
X134858752Y-107784397D02*
X134906371Y-107689159D01*
X134906371Y-107689159D02*
X134953990Y-107498683D01*
X134953990Y-107498683D02*
X135001609Y-107403445D01*
X135001609Y-107403445D02*
X135049228Y-107355826D01*
X135049228Y-107355826D02*
X135144466Y-107308207D01*
X135144466Y-107308207D02*
X135239704Y-107308207D01*
X135239704Y-107308207D02*
X135334942Y-107355826D01*
X135334942Y-107355826D02*
X135382561Y-107403445D01*
X135382561Y-107403445D02*
X135430180Y-107498683D01*
X135430180Y-107498683D02*
X135430180Y-107736778D01*
X135430180Y-107736778D02*
X135382561Y-107879635D01*
X135430180Y-108498683D02*
X135430180Y-108689159D01*
X135430180Y-108689159D02*
X135382561Y-108784397D01*
X135382561Y-108784397D02*
X135287323Y-108879635D01*
X135287323Y-108879635D02*
X135096847Y-108927254D01*
X135096847Y-108927254D02*
X134763514Y-108927254D01*
X134763514Y-108927254D02*
X134573038Y-108879635D01*
X134573038Y-108879635D02*
X134477800Y-108784397D01*
X134477800Y-108784397D02*
X134430180Y-108689159D01*
X134430180Y-108689159D02*
X134430180Y-108498683D01*
X134430180Y-108498683D02*
X134477800Y-108403445D01*
X134477800Y-108403445D02*
X134573038Y-108308207D01*
X134573038Y-108308207D02*
X134763514Y-108260588D01*
X134763514Y-108260588D02*
X135096847Y-108260588D01*
X135096847Y-108260588D02*
X135287323Y-108308207D01*
X135287323Y-108308207D02*
X135382561Y-108403445D01*
X135382561Y-108403445D02*
X135430180Y-108498683D01*
X137277800Y-106189160D02*
X137230180Y-106332017D01*
X137230180Y-106332017D02*
X137230180Y-106570112D01*
X137230180Y-106570112D02*
X137277800Y-106665350D01*
X137277800Y-106665350D02*
X137325419Y-106712969D01*
X137325419Y-106712969D02*
X137420657Y-106760588D01*
X137420657Y-106760588D02*
X137515895Y-106760588D01*
X137515895Y-106760588D02*
X137611133Y-106712969D01*
X137611133Y-106712969D02*
X137658752Y-106665350D01*
X137658752Y-106665350D02*
X137706371Y-106570112D01*
X137706371Y-106570112D02*
X137753990Y-106379636D01*
X137753990Y-106379636D02*
X137801609Y-106284398D01*
X137801609Y-106284398D02*
X137849228Y-106236779D01*
X137849228Y-106236779D02*
X137944466Y-106189160D01*
X137944466Y-106189160D02*
X138039704Y-106189160D01*
X138039704Y-106189160D02*
X138134942Y-106236779D01*
X138134942Y-106236779D02*
X138182561Y-106284398D01*
X138182561Y-106284398D02*
X138230180Y-106379636D01*
X138230180Y-106379636D02*
X138230180Y-106617731D01*
X138230180Y-106617731D02*
X138182561Y-106760588D01*
X137325419Y-107760588D02*
X137277800Y-107712969D01*
X137277800Y-107712969D02*
X137230180Y-107570112D01*
X137230180Y-107570112D02*
X137230180Y-107474874D01*
X137230180Y-107474874D02*
X137277800Y-107332017D01*
X137277800Y-107332017D02*
X137373038Y-107236779D01*
X137373038Y-107236779D02*
X137468276Y-107189160D01*
X137468276Y-107189160D02*
X137658752Y-107141541D01*
X137658752Y-107141541D02*
X137801609Y-107141541D01*
X137801609Y-107141541D02*
X137992085Y-107189160D01*
X137992085Y-107189160D02*
X138087323Y-107236779D01*
X138087323Y-107236779D02*
X138182561Y-107332017D01*
X138182561Y-107332017D02*
X138230180Y-107474874D01*
X138230180Y-107474874D02*
X138230180Y-107570112D01*
X138230180Y-107570112D02*
X138182561Y-107712969D01*
X138182561Y-107712969D02*
X138134942Y-107760588D01*
X137230180Y-108189160D02*
X138230180Y-108189160D01*
X137230180Y-108760588D02*
X137801609Y-108332017D01*
X138230180Y-108760588D02*
X137658752Y-108189160D01*
X124836779Y-113479700D02*
X125015350Y-113539223D01*
X125015350Y-113539223D02*
X125312969Y-113539223D01*
X125312969Y-113539223D02*
X125432017Y-113479700D01*
X125432017Y-113479700D02*
X125491541Y-113420176D01*
X125491541Y-113420176D02*
X125551064Y-113301128D01*
X125551064Y-113301128D02*
X125551064Y-113182080D01*
X125551064Y-113182080D02*
X125491541Y-113063033D01*
X125491541Y-113063033D02*
X125432017Y-113003509D01*
X125432017Y-113003509D02*
X125312969Y-112943985D01*
X125312969Y-112943985D02*
X125074874Y-112884461D01*
X125074874Y-112884461D02*
X124955826Y-112824938D01*
X124955826Y-112824938D02*
X124896303Y-112765414D01*
X124896303Y-112765414D02*
X124836779Y-112646366D01*
X124836779Y-112646366D02*
X124836779Y-112527319D01*
X124836779Y-112527319D02*
X124896303Y-112408271D01*
X124896303Y-112408271D02*
X124955826Y-112348747D01*
X124955826Y-112348747D02*
X125074874Y-112289223D01*
X125074874Y-112289223D02*
X125372493Y-112289223D01*
X125372493Y-112289223D02*
X125551064Y-112348747D01*
X126086779Y-113539223D02*
X126086779Y-112289223D01*
X126086779Y-112289223D02*
X126562969Y-112289223D01*
X126562969Y-112289223D02*
X126682017Y-112348747D01*
X126682017Y-112348747D02*
X126741540Y-112408271D01*
X126741540Y-112408271D02*
X126801064Y-112527319D01*
X126801064Y-112527319D02*
X126801064Y-112705890D01*
X126801064Y-112705890D02*
X126741540Y-112824938D01*
X126741540Y-112824938D02*
X126682017Y-112884461D01*
X126682017Y-112884461D02*
X126562969Y-112943985D01*
X126562969Y-112943985D02*
X126086779Y-112943985D01*
X127336779Y-113539223D02*
X127336779Y-112289223D01*
%TO.C,SW1*%
X131166667Y-81807200D02*
X131309524Y-81854819D01*
X131309524Y-81854819D02*
X131547619Y-81854819D01*
X131547619Y-81854819D02*
X131642857Y-81807200D01*
X131642857Y-81807200D02*
X131690476Y-81759580D01*
X131690476Y-81759580D02*
X131738095Y-81664342D01*
X131738095Y-81664342D02*
X131738095Y-81569104D01*
X131738095Y-81569104D02*
X131690476Y-81473866D01*
X131690476Y-81473866D02*
X131642857Y-81426247D01*
X131642857Y-81426247D02*
X131547619Y-81378628D01*
X131547619Y-81378628D02*
X131357143Y-81331009D01*
X131357143Y-81331009D02*
X131261905Y-81283390D01*
X131261905Y-81283390D02*
X131214286Y-81235771D01*
X131214286Y-81235771D02*
X131166667Y-81140533D01*
X131166667Y-81140533D02*
X131166667Y-81045295D01*
X131166667Y-81045295D02*
X131214286Y-80950057D01*
X131214286Y-80950057D02*
X131261905Y-80902438D01*
X131261905Y-80902438D02*
X131357143Y-80854819D01*
X131357143Y-80854819D02*
X131595238Y-80854819D01*
X131595238Y-80854819D02*
X131738095Y-80902438D01*
X132071429Y-80854819D02*
X132309524Y-81854819D01*
X132309524Y-81854819D02*
X132500000Y-81140533D01*
X132500000Y-81140533D02*
X132690476Y-81854819D01*
X132690476Y-81854819D02*
X132928572Y-80854819D01*
X133833333Y-81854819D02*
X133261905Y-81854819D01*
X133547619Y-81854819D02*
X133547619Y-80854819D01*
X133547619Y-80854819D02*
X133452381Y-80997676D01*
X133452381Y-80997676D02*
X133357143Y-81092914D01*
X133357143Y-81092914D02*
X133261905Y-81140533D01*
%TO.C,J5*%
X154854819Y-88533333D02*
X155569104Y-88533333D01*
X155569104Y-88533333D02*
X155711961Y-88580952D01*
X155711961Y-88580952D02*
X155807200Y-88676190D01*
X155807200Y-88676190D02*
X155854819Y-88819047D01*
X155854819Y-88819047D02*
X155854819Y-88914285D01*
X154854819Y-87580952D02*
X154854819Y-88057142D01*
X154854819Y-88057142D02*
X155331009Y-88104761D01*
X155331009Y-88104761D02*
X155283390Y-88057142D01*
X155283390Y-88057142D02*
X155235771Y-87961904D01*
X155235771Y-87961904D02*
X155235771Y-87723809D01*
X155235771Y-87723809D02*
X155283390Y-87628571D01*
X155283390Y-87628571D02*
X155331009Y-87580952D01*
X155331009Y-87580952D02*
X155426247Y-87533333D01*
X155426247Y-87533333D02*
X155664342Y-87533333D01*
X155664342Y-87533333D02*
X155759580Y-87580952D01*
X155759580Y-87580952D02*
X155807200Y-87628571D01*
X155807200Y-87628571D02*
X155854819Y-87723809D01*
X155854819Y-87723809D02*
X155854819Y-87961904D01*
X155854819Y-87961904D02*
X155807200Y-88057142D01*
X155807200Y-88057142D02*
X155759580Y-88104761D01*
%TO.C,R5*%
X144408333Y-96104819D02*
X144075000Y-95628628D01*
X143836905Y-96104819D02*
X143836905Y-95104819D01*
X143836905Y-95104819D02*
X144217857Y-95104819D01*
X144217857Y-95104819D02*
X144313095Y-95152438D01*
X144313095Y-95152438D02*
X144360714Y-95200057D01*
X144360714Y-95200057D02*
X144408333Y-95295295D01*
X144408333Y-95295295D02*
X144408333Y-95438152D01*
X144408333Y-95438152D02*
X144360714Y-95533390D01*
X144360714Y-95533390D02*
X144313095Y-95581009D01*
X144313095Y-95581009D02*
X144217857Y-95628628D01*
X144217857Y-95628628D02*
X143836905Y-95628628D01*
X145313095Y-95104819D02*
X144836905Y-95104819D01*
X144836905Y-95104819D02*
X144789286Y-95581009D01*
X144789286Y-95581009D02*
X144836905Y-95533390D01*
X144836905Y-95533390D02*
X144932143Y-95485771D01*
X144932143Y-95485771D02*
X145170238Y-95485771D01*
X145170238Y-95485771D02*
X145265476Y-95533390D01*
X145265476Y-95533390D02*
X145313095Y-95581009D01*
X145313095Y-95581009D02*
X145360714Y-95676247D01*
X145360714Y-95676247D02*
X145360714Y-95914342D01*
X145360714Y-95914342D02*
X145313095Y-96009580D01*
X145313095Y-96009580D02*
X145265476Y-96057200D01*
X145265476Y-96057200D02*
X145170238Y-96104819D01*
X145170238Y-96104819D02*
X144932143Y-96104819D01*
X144932143Y-96104819D02*
X144836905Y-96057200D01*
X144836905Y-96057200D02*
X144789286Y-96009580D01*
%TO.C,C2*%
X141583333Y-98319580D02*
X141535714Y-98367200D01*
X141535714Y-98367200D02*
X141392857Y-98414819D01*
X141392857Y-98414819D02*
X141297619Y-98414819D01*
X141297619Y-98414819D02*
X141154762Y-98367200D01*
X141154762Y-98367200D02*
X141059524Y-98271961D01*
X141059524Y-98271961D02*
X141011905Y-98176723D01*
X141011905Y-98176723D02*
X140964286Y-97986247D01*
X140964286Y-97986247D02*
X140964286Y-97843390D01*
X140964286Y-97843390D02*
X141011905Y-97652914D01*
X141011905Y-97652914D02*
X141059524Y-97557676D01*
X141059524Y-97557676D02*
X141154762Y-97462438D01*
X141154762Y-97462438D02*
X141297619Y-97414819D01*
X141297619Y-97414819D02*
X141392857Y-97414819D01*
X141392857Y-97414819D02*
X141535714Y-97462438D01*
X141535714Y-97462438D02*
X141583333Y-97510057D01*
X141964286Y-97510057D02*
X142011905Y-97462438D01*
X142011905Y-97462438D02*
X142107143Y-97414819D01*
X142107143Y-97414819D02*
X142345238Y-97414819D01*
X142345238Y-97414819D02*
X142440476Y-97462438D01*
X142440476Y-97462438D02*
X142488095Y-97510057D01*
X142488095Y-97510057D02*
X142535714Y-97605295D01*
X142535714Y-97605295D02*
X142535714Y-97700533D01*
X142535714Y-97700533D02*
X142488095Y-97843390D01*
X142488095Y-97843390D02*
X141916667Y-98414819D01*
X141916667Y-98414819D02*
X142535714Y-98414819D01*
%TO.C,J2*%
X148416666Y-75654819D02*
X148416666Y-76369104D01*
X148416666Y-76369104D02*
X148369047Y-76511961D01*
X148369047Y-76511961D02*
X148273809Y-76607200D01*
X148273809Y-76607200D02*
X148130952Y-76654819D01*
X148130952Y-76654819D02*
X148035714Y-76654819D01*
X148845238Y-75750057D02*
X148892857Y-75702438D01*
X148892857Y-75702438D02*
X148988095Y-75654819D01*
X148988095Y-75654819D02*
X149226190Y-75654819D01*
X149226190Y-75654819D02*
X149321428Y-75702438D01*
X149321428Y-75702438D02*
X149369047Y-75750057D01*
X149369047Y-75750057D02*
X149416666Y-75845295D01*
X149416666Y-75845295D02*
X149416666Y-75940533D01*
X149416666Y-75940533D02*
X149369047Y-76083390D01*
X149369047Y-76083390D02*
X148797619Y-76654819D01*
X148797619Y-76654819D02*
X149416666Y-76654819D01*
%TO.C,C11*%
X124057142Y-84059580D02*
X124009523Y-84107200D01*
X124009523Y-84107200D02*
X123866666Y-84154819D01*
X123866666Y-84154819D02*
X123771428Y-84154819D01*
X123771428Y-84154819D02*
X123628571Y-84107200D01*
X123628571Y-84107200D02*
X123533333Y-84011961D01*
X123533333Y-84011961D02*
X123485714Y-83916723D01*
X123485714Y-83916723D02*
X123438095Y-83726247D01*
X123438095Y-83726247D02*
X123438095Y-83583390D01*
X123438095Y-83583390D02*
X123485714Y-83392914D01*
X123485714Y-83392914D02*
X123533333Y-83297676D01*
X123533333Y-83297676D02*
X123628571Y-83202438D01*
X123628571Y-83202438D02*
X123771428Y-83154819D01*
X123771428Y-83154819D02*
X123866666Y-83154819D01*
X123866666Y-83154819D02*
X124009523Y-83202438D01*
X124009523Y-83202438D02*
X124057142Y-83250057D01*
X125009523Y-84154819D02*
X124438095Y-84154819D01*
X124723809Y-84154819D02*
X124723809Y-83154819D01*
X124723809Y-83154819D02*
X124628571Y-83297676D01*
X124628571Y-83297676D02*
X124533333Y-83392914D01*
X124533333Y-83392914D02*
X124438095Y-83440533D01*
X125961904Y-84154819D02*
X125390476Y-84154819D01*
X125676190Y-84154819D02*
X125676190Y-83154819D01*
X125676190Y-83154819D02*
X125580952Y-83297676D01*
X125580952Y-83297676D02*
X125485714Y-83392914D01*
X125485714Y-83392914D02*
X125390476Y-83440533D01*
%TO.C,L1*%
X150033333Y-101029819D02*
X149557143Y-101029819D01*
X149557143Y-101029819D02*
X149557143Y-100029819D01*
X150890476Y-101029819D02*
X150319048Y-101029819D01*
X150604762Y-101029819D02*
X150604762Y-100029819D01*
X150604762Y-100029819D02*
X150509524Y-100172676D01*
X150509524Y-100172676D02*
X150414286Y-100267914D01*
X150414286Y-100267914D02*
X150319048Y-100315533D01*
%TO.C,Y1*%
X116778628Y-89218190D02*
X117254819Y-89218190D01*
X116254819Y-89551523D02*
X116778628Y-89218190D01*
X116778628Y-89218190D02*
X116254819Y-88884857D01*
X117254819Y-88027714D02*
X117254819Y-88599142D01*
X117254819Y-88313428D02*
X116254819Y-88313428D01*
X116254819Y-88313428D02*
X116397676Y-88408666D01*
X116397676Y-88408666D02*
X116492914Y-88503904D01*
X116492914Y-88503904D02*
X116540533Y-88599142D01*
%TO.C,C12*%
X124309580Y-94092857D02*
X124357200Y-94140476D01*
X124357200Y-94140476D02*
X124404819Y-94283333D01*
X124404819Y-94283333D02*
X124404819Y-94378571D01*
X124404819Y-94378571D02*
X124357200Y-94521428D01*
X124357200Y-94521428D02*
X124261961Y-94616666D01*
X124261961Y-94616666D02*
X124166723Y-94664285D01*
X124166723Y-94664285D02*
X123976247Y-94711904D01*
X123976247Y-94711904D02*
X123833390Y-94711904D01*
X123833390Y-94711904D02*
X123642914Y-94664285D01*
X123642914Y-94664285D02*
X123547676Y-94616666D01*
X123547676Y-94616666D02*
X123452438Y-94521428D01*
X123452438Y-94521428D02*
X123404819Y-94378571D01*
X123404819Y-94378571D02*
X123404819Y-94283333D01*
X123404819Y-94283333D02*
X123452438Y-94140476D01*
X123452438Y-94140476D02*
X123500057Y-94092857D01*
X124404819Y-93140476D02*
X124404819Y-93711904D01*
X124404819Y-93426190D02*
X123404819Y-93426190D01*
X123404819Y-93426190D02*
X123547676Y-93521428D01*
X123547676Y-93521428D02*
X123642914Y-93616666D01*
X123642914Y-93616666D02*
X123690533Y-93711904D01*
X123500057Y-92759523D02*
X123452438Y-92711904D01*
X123452438Y-92711904D02*
X123404819Y-92616666D01*
X123404819Y-92616666D02*
X123404819Y-92378571D01*
X123404819Y-92378571D02*
X123452438Y-92283333D01*
X123452438Y-92283333D02*
X123500057Y-92235714D01*
X123500057Y-92235714D02*
X123595295Y-92188095D01*
X123595295Y-92188095D02*
X123690533Y-92188095D01*
X123690533Y-92188095D02*
X123833390Y-92235714D01*
X123833390Y-92235714D02*
X124404819Y-92807142D01*
X124404819Y-92807142D02*
X124404819Y-92188095D01*
%TO.C,R4*%
X142304819Y-83916666D02*
X141828628Y-84249999D01*
X142304819Y-84488094D02*
X141304819Y-84488094D01*
X141304819Y-84488094D02*
X141304819Y-84107142D01*
X141304819Y-84107142D02*
X141352438Y-84011904D01*
X141352438Y-84011904D02*
X141400057Y-83964285D01*
X141400057Y-83964285D02*
X141495295Y-83916666D01*
X141495295Y-83916666D02*
X141638152Y-83916666D01*
X141638152Y-83916666D02*
X141733390Y-83964285D01*
X141733390Y-83964285D02*
X141781009Y-84011904D01*
X141781009Y-84011904D02*
X141828628Y-84107142D01*
X141828628Y-84107142D02*
X141828628Y-84488094D01*
X141638152Y-83059523D02*
X142304819Y-83059523D01*
X141257200Y-83297618D02*
X141971485Y-83535713D01*
X141971485Y-83535713D02*
X141971485Y-82916666D01*
%TO.C,R3*%
X128754819Y-82946666D02*
X128278628Y-83279999D01*
X128754819Y-83518094D02*
X127754819Y-83518094D01*
X127754819Y-83518094D02*
X127754819Y-83137142D01*
X127754819Y-83137142D02*
X127802438Y-83041904D01*
X127802438Y-83041904D02*
X127850057Y-82994285D01*
X127850057Y-82994285D02*
X127945295Y-82946666D01*
X127945295Y-82946666D02*
X128088152Y-82946666D01*
X128088152Y-82946666D02*
X128183390Y-82994285D01*
X128183390Y-82994285D02*
X128231009Y-83041904D01*
X128231009Y-83041904D02*
X128278628Y-83137142D01*
X128278628Y-83137142D02*
X128278628Y-83518094D01*
X127754819Y-82613332D02*
X127754819Y-81994285D01*
X127754819Y-81994285D02*
X128135771Y-82327618D01*
X128135771Y-82327618D02*
X128135771Y-82184761D01*
X128135771Y-82184761D02*
X128183390Y-82089523D01*
X128183390Y-82089523D02*
X128231009Y-82041904D01*
X128231009Y-82041904D02*
X128326247Y-81994285D01*
X128326247Y-81994285D02*
X128564342Y-81994285D01*
X128564342Y-81994285D02*
X128659580Y-82041904D01*
X128659580Y-82041904D02*
X128707200Y-82089523D01*
X128707200Y-82089523D02*
X128754819Y-82184761D01*
X128754819Y-82184761D02*
X128754819Y-82470475D01*
X128754819Y-82470475D02*
X128707200Y-82565713D01*
X128707200Y-82565713D02*
X128659580Y-82613332D01*
%TO.C,C7*%
X147858333Y-104384580D02*
X147810714Y-104432200D01*
X147810714Y-104432200D02*
X147667857Y-104479819D01*
X147667857Y-104479819D02*
X147572619Y-104479819D01*
X147572619Y-104479819D02*
X147429762Y-104432200D01*
X147429762Y-104432200D02*
X147334524Y-104336961D01*
X147334524Y-104336961D02*
X147286905Y-104241723D01*
X147286905Y-104241723D02*
X147239286Y-104051247D01*
X147239286Y-104051247D02*
X147239286Y-103908390D01*
X147239286Y-103908390D02*
X147286905Y-103717914D01*
X147286905Y-103717914D02*
X147334524Y-103622676D01*
X147334524Y-103622676D02*
X147429762Y-103527438D01*
X147429762Y-103527438D02*
X147572619Y-103479819D01*
X147572619Y-103479819D02*
X147667857Y-103479819D01*
X147667857Y-103479819D02*
X147810714Y-103527438D01*
X147810714Y-103527438D02*
X147858333Y-103575057D01*
X148191667Y-103479819D02*
X148858333Y-103479819D01*
X148858333Y-103479819D02*
X148429762Y-104479819D01*
%TO.C,J1*%
X142886666Y-111954819D02*
X142886666Y-112669104D01*
X142886666Y-112669104D02*
X142839047Y-112811961D01*
X142839047Y-112811961D02*
X142743809Y-112907200D01*
X142743809Y-112907200D02*
X142600952Y-112954819D01*
X142600952Y-112954819D02*
X142505714Y-112954819D01*
X143886666Y-112954819D02*
X143315238Y-112954819D01*
X143600952Y-112954819D02*
X143600952Y-111954819D01*
X143600952Y-111954819D02*
X143505714Y-112097676D01*
X143505714Y-112097676D02*
X143410476Y-112192914D01*
X143410476Y-112192914D02*
X143315238Y-112240533D01*
%TO.C,C9*%
X127133333Y-99259580D02*
X127085714Y-99307200D01*
X127085714Y-99307200D02*
X126942857Y-99354819D01*
X126942857Y-99354819D02*
X126847619Y-99354819D01*
X126847619Y-99354819D02*
X126704762Y-99307200D01*
X126704762Y-99307200D02*
X126609524Y-99211961D01*
X126609524Y-99211961D02*
X126561905Y-99116723D01*
X126561905Y-99116723D02*
X126514286Y-98926247D01*
X126514286Y-98926247D02*
X126514286Y-98783390D01*
X126514286Y-98783390D02*
X126561905Y-98592914D01*
X126561905Y-98592914D02*
X126609524Y-98497676D01*
X126609524Y-98497676D02*
X126704762Y-98402438D01*
X126704762Y-98402438D02*
X126847619Y-98354819D01*
X126847619Y-98354819D02*
X126942857Y-98354819D01*
X126942857Y-98354819D02*
X127085714Y-98402438D01*
X127085714Y-98402438D02*
X127133333Y-98450057D01*
X127609524Y-99354819D02*
X127800000Y-99354819D01*
X127800000Y-99354819D02*
X127895238Y-99307200D01*
X127895238Y-99307200D02*
X127942857Y-99259580D01*
X127942857Y-99259580D02*
X128038095Y-99116723D01*
X128038095Y-99116723D02*
X128085714Y-98926247D01*
X128085714Y-98926247D02*
X128085714Y-98545295D01*
X128085714Y-98545295D02*
X128038095Y-98450057D01*
X128038095Y-98450057D02*
X127990476Y-98402438D01*
X127990476Y-98402438D02*
X127895238Y-98354819D01*
X127895238Y-98354819D02*
X127704762Y-98354819D01*
X127704762Y-98354819D02*
X127609524Y-98402438D01*
X127609524Y-98402438D02*
X127561905Y-98450057D01*
X127561905Y-98450057D02*
X127514286Y-98545295D01*
X127514286Y-98545295D02*
X127514286Y-98783390D01*
X127514286Y-98783390D02*
X127561905Y-98878628D01*
X127561905Y-98878628D02*
X127609524Y-98926247D01*
X127609524Y-98926247D02*
X127704762Y-98973866D01*
X127704762Y-98973866D02*
X127895238Y-98973866D01*
X127895238Y-98973866D02*
X127990476Y-98926247D01*
X127990476Y-98926247D02*
X128038095Y-98878628D01*
X128038095Y-98878628D02*
X128085714Y-98783390D01*
%TO.C,D2*%
X154361905Y-101154819D02*
X154361905Y-100154819D01*
X154361905Y-100154819D02*
X154600000Y-100154819D01*
X154600000Y-100154819D02*
X154742857Y-100202438D01*
X154742857Y-100202438D02*
X154838095Y-100297676D01*
X154838095Y-100297676D02*
X154885714Y-100392914D01*
X154885714Y-100392914D02*
X154933333Y-100583390D01*
X154933333Y-100583390D02*
X154933333Y-100726247D01*
X154933333Y-100726247D02*
X154885714Y-100916723D01*
X154885714Y-100916723D02*
X154838095Y-101011961D01*
X154838095Y-101011961D02*
X154742857Y-101107200D01*
X154742857Y-101107200D02*
X154600000Y-101154819D01*
X154600000Y-101154819D02*
X154361905Y-101154819D01*
X155314286Y-100250057D02*
X155361905Y-100202438D01*
X155361905Y-100202438D02*
X155457143Y-100154819D01*
X155457143Y-100154819D02*
X155695238Y-100154819D01*
X155695238Y-100154819D02*
X155790476Y-100202438D01*
X155790476Y-100202438D02*
X155838095Y-100250057D01*
X155838095Y-100250057D02*
X155885714Y-100345295D01*
X155885714Y-100345295D02*
X155885714Y-100440533D01*
X155885714Y-100440533D02*
X155838095Y-100583390D01*
X155838095Y-100583390D02*
X155266667Y-101154819D01*
X155266667Y-101154819D02*
X155885714Y-101154819D01*
%TO.C,C5*%
X129533333Y-93559580D02*
X129485714Y-93607200D01*
X129485714Y-93607200D02*
X129342857Y-93654819D01*
X129342857Y-93654819D02*
X129247619Y-93654819D01*
X129247619Y-93654819D02*
X129104762Y-93607200D01*
X129104762Y-93607200D02*
X129009524Y-93511961D01*
X129009524Y-93511961D02*
X128961905Y-93416723D01*
X128961905Y-93416723D02*
X128914286Y-93226247D01*
X128914286Y-93226247D02*
X128914286Y-93083390D01*
X128914286Y-93083390D02*
X128961905Y-92892914D01*
X128961905Y-92892914D02*
X129009524Y-92797676D01*
X129009524Y-92797676D02*
X129104762Y-92702438D01*
X129104762Y-92702438D02*
X129247619Y-92654819D01*
X129247619Y-92654819D02*
X129342857Y-92654819D01*
X129342857Y-92654819D02*
X129485714Y-92702438D01*
X129485714Y-92702438D02*
X129533333Y-92750057D01*
X130438095Y-92654819D02*
X129961905Y-92654819D01*
X129961905Y-92654819D02*
X129914286Y-93131009D01*
X129914286Y-93131009D02*
X129961905Y-93083390D01*
X129961905Y-93083390D02*
X130057143Y-93035771D01*
X130057143Y-93035771D02*
X130295238Y-93035771D01*
X130295238Y-93035771D02*
X130390476Y-93083390D01*
X130390476Y-93083390D02*
X130438095Y-93131009D01*
X130438095Y-93131009D02*
X130485714Y-93226247D01*
X130485714Y-93226247D02*
X130485714Y-93464342D01*
X130485714Y-93464342D02*
X130438095Y-93559580D01*
X130438095Y-93559580D02*
X130390476Y-93607200D01*
X130390476Y-93607200D02*
X130295238Y-93654819D01*
X130295238Y-93654819D02*
X130057143Y-93654819D01*
X130057143Y-93654819D02*
X129961905Y-93607200D01*
X129961905Y-93607200D02*
X129914286Y-93559580D01*
%TO.C,R7*%
X127733333Y-92054819D02*
X127400000Y-91578628D01*
X127161905Y-92054819D02*
X127161905Y-91054819D01*
X127161905Y-91054819D02*
X127542857Y-91054819D01*
X127542857Y-91054819D02*
X127638095Y-91102438D01*
X127638095Y-91102438D02*
X127685714Y-91150057D01*
X127685714Y-91150057D02*
X127733333Y-91245295D01*
X127733333Y-91245295D02*
X127733333Y-91388152D01*
X127733333Y-91388152D02*
X127685714Y-91483390D01*
X127685714Y-91483390D02*
X127638095Y-91531009D01*
X127638095Y-91531009D02*
X127542857Y-91578628D01*
X127542857Y-91578628D02*
X127161905Y-91578628D01*
X128066667Y-91054819D02*
X128733333Y-91054819D01*
X128733333Y-91054819D02*
X128304762Y-92054819D01*
%TO.C,C8*%
X141133333Y-106159580D02*
X141085714Y-106207200D01*
X141085714Y-106207200D02*
X140942857Y-106254819D01*
X140942857Y-106254819D02*
X140847619Y-106254819D01*
X140847619Y-106254819D02*
X140704762Y-106207200D01*
X140704762Y-106207200D02*
X140609524Y-106111961D01*
X140609524Y-106111961D02*
X140561905Y-106016723D01*
X140561905Y-106016723D02*
X140514286Y-105826247D01*
X140514286Y-105826247D02*
X140514286Y-105683390D01*
X140514286Y-105683390D02*
X140561905Y-105492914D01*
X140561905Y-105492914D02*
X140609524Y-105397676D01*
X140609524Y-105397676D02*
X140704762Y-105302438D01*
X140704762Y-105302438D02*
X140847619Y-105254819D01*
X140847619Y-105254819D02*
X140942857Y-105254819D01*
X140942857Y-105254819D02*
X141085714Y-105302438D01*
X141085714Y-105302438D02*
X141133333Y-105350057D01*
X141704762Y-105683390D02*
X141609524Y-105635771D01*
X141609524Y-105635771D02*
X141561905Y-105588152D01*
X141561905Y-105588152D02*
X141514286Y-105492914D01*
X141514286Y-105492914D02*
X141514286Y-105445295D01*
X141514286Y-105445295D02*
X141561905Y-105350057D01*
X141561905Y-105350057D02*
X141609524Y-105302438D01*
X141609524Y-105302438D02*
X141704762Y-105254819D01*
X141704762Y-105254819D02*
X141895238Y-105254819D01*
X141895238Y-105254819D02*
X141990476Y-105302438D01*
X141990476Y-105302438D02*
X142038095Y-105350057D01*
X142038095Y-105350057D02*
X142085714Y-105445295D01*
X142085714Y-105445295D02*
X142085714Y-105492914D01*
X142085714Y-105492914D02*
X142038095Y-105588152D01*
X142038095Y-105588152D02*
X141990476Y-105635771D01*
X141990476Y-105635771D02*
X141895238Y-105683390D01*
X141895238Y-105683390D02*
X141704762Y-105683390D01*
X141704762Y-105683390D02*
X141609524Y-105731009D01*
X141609524Y-105731009D02*
X141561905Y-105778628D01*
X141561905Y-105778628D02*
X141514286Y-105873866D01*
X141514286Y-105873866D02*
X141514286Y-106064342D01*
X141514286Y-106064342D02*
X141561905Y-106159580D01*
X141561905Y-106159580D02*
X141609524Y-106207200D01*
X141609524Y-106207200D02*
X141704762Y-106254819D01*
X141704762Y-106254819D02*
X141895238Y-106254819D01*
X141895238Y-106254819D02*
X141990476Y-106207200D01*
X141990476Y-106207200D02*
X142038095Y-106159580D01*
X142038095Y-106159580D02*
X142085714Y-106064342D01*
X142085714Y-106064342D02*
X142085714Y-105873866D01*
X142085714Y-105873866D02*
X142038095Y-105778628D01*
X142038095Y-105778628D02*
X141990476Y-105731009D01*
X141990476Y-105731009D02*
X141895238Y-105683390D01*
%TO.C,U2*%
X137988095Y-99064819D02*
X137988095Y-99874342D01*
X137988095Y-99874342D02*
X138035714Y-99969580D01*
X138035714Y-99969580D02*
X138083333Y-100017200D01*
X138083333Y-100017200D02*
X138178571Y-100064819D01*
X138178571Y-100064819D02*
X138369047Y-100064819D01*
X138369047Y-100064819D02*
X138464285Y-100017200D01*
X138464285Y-100017200D02*
X138511904Y-99969580D01*
X138511904Y-99969580D02*
X138559523Y-99874342D01*
X138559523Y-99874342D02*
X138559523Y-99064819D01*
X138988095Y-99160057D02*
X139035714Y-99112438D01*
X139035714Y-99112438D02*
X139130952Y-99064819D01*
X139130952Y-99064819D02*
X139369047Y-99064819D01*
X139369047Y-99064819D02*
X139464285Y-99112438D01*
X139464285Y-99112438D02*
X139511904Y-99160057D01*
X139511904Y-99160057D02*
X139559523Y-99255295D01*
X139559523Y-99255295D02*
X139559523Y-99350533D01*
X139559523Y-99350533D02*
X139511904Y-99493390D01*
X139511904Y-99493390D02*
X138940476Y-100064819D01*
X138940476Y-100064819D02*
X139559523Y-100064819D01*
%TO.C,R1*%
X138954819Y-85906666D02*
X138478628Y-86239999D01*
X138954819Y-86478094D02*
X137954819Y-86478094D01*
X137954819Y-86478094D02*
X137954819Y-86097142D01*
X137954819Y-86097142D02*
X138002438Y-86001904D01*
X138002438Y-86001904D02*
X138050057Y-85954285D01*
X138050057Y-85954285D02*
X138145295Y-85906666D01*
X138145295Y-85906666D02*
X138288152Y-85906666D01*
X138288152Y-85906666D02*
X138383390Y-85954285D01*
X138383390Y-85954285D02*
X138431009Y-86001904D01*
X138431009Y-86001904D02*
X138478628Y-86097142D01*
X138478628Y-86097142D02*
X138478628Y-86478094D01*
X138954819Y-84954285D02*
X138954819Y-85525713D01*
X138954819Y-85239999D02*
X137954819Y-85239999D01*
X137954819Y-85239999D02*
X138097676Y-85335237D01*
X138097676Y-85335237D02*
X138192914Y-85430475D01*
X138192914Y-85430475D02*
X138240533Y-85525713D01*
%TO.C,U1*%
X142404819Y-101986904D02*
X143214342Y-101986904D01*
X143214342Y-101986904D02*
X143309580Y-101939285D01*
X143309580Y-101939285D02*
X143357200Y-101891666D01*
X143357200Y-101891666D02*
X143404819Y-101796428D01*
X143404819Y-101796428D02*
X143404819Y-101605952D01*
X143404819Y-101605952D02*
X143357200Y-101510714D01*
X143357200Y-101510714D02*
X143309580Y-101463095D01*
X143309580Y-101463095D02*
X143214342Y-101415476D01*
X143214342Y-101415476D02*
X142404819Y-101415476D01*
X143404819Y-100415476D02*
X143404819Y-100986904D01*
X143404819Y-100701190D02*
X142404819Y-100701190D01*
X142404819Y-100701190D02*
X142547676Y-100796428D01*
X142547676Y-100796428D02*
X142642914Y-100891666D01*
X142642914Y-100891666D02*
X142690533Y-100986904D01*
%TO.C,FB1*%
X126331009Y-96287333D02*
X126331009Y-96620666D01*
X126854819Y-96620666D02*
X125854819Y-96620666D01*
X125854819Y-96620666D02*
X125854819Y-96144476D01*
X126331009Y-95430190D02*
X126378628Y-95287333D01*
X126378628Y-95287333D02*
X126426247Y-95239714D01*
X126426247Y-95239714D02*
X126521485Y-95192095D01*
X126521485Y-95192095D02*
X126664342Y-95192095D01*
X126664342Y-95192095D02*
X126759580Y-95239714D01*
X126759580Y-95239714D02*
X126807200Y-95287333D01*
X126807200Y-95287333D02*
X126854819Y-95382571D01*
X126854819Y-95382571D02*
X126854819Y-95763523D01*
X126854819Y-95763523D02*
X125854819Y-95763523D01*
X125854819Y-95763523D02*
X125854819Y-95430190D01*
X125854819Y-95430190D02*
X125902438Y-95334952D01*
X125902438Y-95334952D02*
X125950057Y-95287333D01*
X125950057Y-95287333D02*
X126045295Y-95239714D01*
X126045295Y-95239714D02*
X126140533Y-95239714D01*
X126140533Y-95239714D02*
X126235771Y-95287333D01*
X126235771Y-95287333D02*
X126283390Y-95334952D01*
X126283390Y-95334952D02*
X126331009Y-95430190D01*
X126331009Y-95430190D02*
X126331009Y-95763523D01*
X126854819Y-94239714D02*
X126854819Y-94811142D01*
X126854819Y-94525428D02*
X125854819Y-94525428D01*
X125854819Y-94525428D02*
X125997676Y-94620666D01*
X125997676Y-94620666D02*
X126092914Y-94715904D01*
X126092914Y-94715904D02*
X126140533Y-94811142D01*
%TO.C,R2*%
X153333333Y-104854819D02*
X153000000Y-104378628D01*
X152761905Y-104854819D02*
X152761905Y-103854819D01*
X152761905Y-103854819D02*
X153142857Y-103854819D01*
X153142857Y-103854819D02*
X153238095Y-103902438D01*
X153238095Y-103902438D02*
X153285714Y-103950057D01*
X153285714Y-103950057D02*
X153333333Y-104045295D01*
X153333333Y-104045295D02*
X153333333Y-104188152D01*
X153333333Y-104188152D02*
X153285714Y-104283390D01*
X153285714Y-104283390D02*
X153238095Y-104331009D01*
X153238095Y-104331009D02*
X153142857Y-104378628D01*
X153142857Y-104378628D02*
X152761905Y-104378628D01*
X153714286Y-103950057D02*
X153761905Y-103902438D01*
X153761905Y-103902438D02*
X153857143Y-103854819D01*
X153857143Y-103854819D02*
X154095238Y-103854819D01*
X154095238Y-103854819D02*
X154190476Y-103902438D01*
X154190476Y-103902438D02*
X154238095Y-103950057D01*
X154238095Y-103950057D02*
X154285714Y-104045295D01*
X154285714Y-104045295D02*
X154285714Y-104140533D01*
X154285714Y-104140533D02*
X154238095Y-104283390D01*
X154238095Y-104283390D02*
X153666667Y-104854819D01*
X153666667Y-104854819D02*
X154285714Y-104854819D01*
%TO.C,C4*%
X142784580Y-95776666D02*
X142832200Y-95824285D01*
X142832200Y-95824285D02*
X142879819Y-95967142D01*
X142879819Y-95967142D02*
X142879819Y-96062380D01*
X142879819Y-96062380D02*
X142832200Y-96205237D01*
X142832200Y-96205237D02*
X142736961Y-96300475D01*
X142736961Y-96300475D02*
X142641723Y-96348094D01*
X142641723Y-96348094D02*
X142451247Y-96395713D01*
X142451247Y-96395713D02*
X142308390Y-96395713D01*
X142308390Y-96395713D02*
X142117914Y-96348094D01*
X142117914Y-96348094D02*
X142022676Y-96300475D01*
X142022676Y-96300475D02*
X141927438Y-96205237D01*
X141927438Y-96205237D02*
X141879819Y-96062380D01*
X141879819Y-96062380D02*
X141879819Y-95967142D01*
X141879819Y-95967142D02*
X141927438Y-95824285D01*
X141927438Y-95824285D02*
X141975057Y-95776666D01*
X142213152Y-94919523D02*
X142879819Y-94919523D01*
X141832200Y-95157618D02*
X142546485Y-95395713D01*
X142546485Y-95395713D02*
X142546485Y-94776666D01*
%TO.C,C3*%
X149933333Y-83659580D02*
X149885714Y-83707200D01*
X149885714Y-83707200D02*
X149742857Y-83754819D01*
X149742857Y-83754819D02*
X149647619Y-83754819D01*
X149647619Y-83754819D02*
X149504762Y-83707200D01*
X149504762Y-83707200D02*
X149409524Y-83611961D01*
X149409524Y-83611961D02*
X149361905Y-83516723D01*
X149361905Y-83516723D02*
X149314286Y-83326247D01*
X149314286Y-83326247D02*
X149314286Y-83183390D01*
X149314286Y-83183390D02*
X149361905Y-82992914D01*
X149361905Y-82992914D02*
X149409524Y-82897676D01*
X149409524Y-82897676D02*
X149504762Y-82802438D01*
X149504762Y-82802438D02*
X149647619Y-82754819D01*
X149647619Y-82754819D02*
X149742857Y-82754819D01*
X149742857Y-82754819D02*
X149885714Y-82802438D01*
X149885714Y-82802438D02*
X149933333Y-82850057D01*
X150266667Y-82754819D02*
X150885714Y-82754819D01*
X150885714Y-82754819D02*
X150552381Y-83135771D01*
X150552381Y-83135771D02*
X150695238Y-83135771D01*
X150695238Y-83135771D02*
X150790476Y-83183390D01*
X150790476Y-83183390D02*
X150838095Y-83231009D01*
X150838095Y-83231009D02*
X150885714Y-83326247D01*
X150885714Y-83326247D02*
X150885714Y-83564342D01*
X150885714Y-83564342D02*
X150838095Y-83659580D01*
X150838095Y-83659580D02*
X150790476Y-83707200D01*
X150790476Y-83707200D02*
X150695238Y-83754819D01*
X150695238Y-83754819D02*
X150409524Y-83754819D01*
X150409524Y-83754819D02*
X150314286Y-83707200D01*
X150314286Y-83707200D02*
X150266667Y-83659580D01*
%TO.C,C1*%
X134373333Y-90609580D02*
X134325714Y-90657200D01*
X134325714Y-90657200D02*
X134182857Y-90704819D01*
X134182857Y-90704819D02*
X134087619Y-90704819D01*
X134087619Y-90704819D02*
X133944762Y-90657200D01*
X133944762Y-90657200D02*
X133849524Y-90561961D01*
X133849524Y-90561961D02*
X133801905Y-90466723D01*
X133801905Y-90466723D02*
X133754286Y-90276247D01*
X133754286Y-90276247D02*
X133754286Y-90133390D01*
X133754286Y-90133390D02*
X133801905Y-89942914D01*
X133801905Y-89942914D02*
X133849524Y-89847676D01*
X133849524Y-89847676D02*
X133944762Y-89752438D01*
X133944762Y-89752438D02*
X134087619Y-89704819D01*
X134087619Y-89704819D02*
X134182857Y-89704819D01*
X134182857Y-89704819D02*
X134325714Y-89752438D01*
X134325714Y-89752438D02*
X134373333Y-89800057D01*
X135325714Y-90704819D02*
X134754286Y-90704819D01*
X135040000Y-90704819D02*
X135040000Y-89704819D01*
X135040000Y-89704819D02*
X134944762Y-89847676D01*
X134944762Y-89847676D02*
X134849524Y-89942914D01*
X134849524Y-89942914D02*
X134754286Y-89990533D01*
%TO.C,R6*%
X146383333Y-92029819D02*
X146050000Y-91553628D01*
X145811905Y-92029819D02*
X145811905Y-91029819D01*
X145811905Y-91029819D02*
X146192857Y-91029819D01*
X146192857Y-91029819D02*
X146288095Y-91077438D01*
X146288095Y-91077438D02*
X146335714Y-91125057D01*
X146335714Y-91125057D02*
X146383333Y-91220295D01*
X146383333Y-91220295D02*
X146383333Y-91363152D01*
X146383333Y-91363152D02*
X146335714Y-91458390D01*
X146335714Y-91458390D02*
X146288095Y-91506009D01*
X146288095Y-91506009D02*
X146192857Y-91553628D01*
X146192857Y-91553628D02*
X145811905Y-91553628D01*
X147240476Y-91029819D02*
X147050000Y-91029819D01*
X147050000Y-91029819D02*
X146954762Y-91077438D01*
X146954762Y-91077438D02*
X146907143Y-91125057D01*
X146907143Y-91125057D02*
X146811905Y-91267914D01*
X146811905Y-91267914D02*
X146764286Y-91458390D01*
X146764286Y-91458390D02*
X146764286Y-91839342D01*
X146764286Y-91839342D02*
X146811905Y-91934580D01*
X146811905Y-91934580D02*
X146859524Y-91982200D01*
X146859524Y-91982200D02*
X146954762Y-92029819D01*
X146954762Y-92029819D02*
X147145238Y-92029819D01*
X147145238Y-92029819D02*
X147240476Y-91982200D01*
X147240476Y-91982200D02*
X147288095Y-91934580D01*
X147288095Y-91934580D02*
X147335714Y-91839342D01*
X147335714Y-91839342D02*
X147335714Y-91601247D01*
X147335714Y-91601247D02*
X147288095Y-91506009D01*
X147288095Y-91506009D02*
X147240476Y-91458390D01*
X147240476Y-91458390D02*
X147145238Y-91410771D01*
X147145238Y-91410771D02*
X146954762Y-91410771D01*
X146954762Y-91410771D02*
X146859524Y-91458390D01*
X146859524Y-91458390D02*
X146811905Y-91506009D01*
X146811905Y-91506009D02*
X146764286Y-91601247D01*
%TO.C,J4*%
X117466666Y-105854819D02*
X117466666Y-106569104D01*
X117466666Y-106569104D02*
X117419047Y-106711961D01*
X117419047Y-106711961D02*
X117323809Y-106807200D01*
X117323809Y-106807200D02*
X117180952Y-106854819D01*
X117180952Y-106854819D02*
X117085714Y-106854819D01*
X118371428Y-106188152D02*
X118371428Y-106854819D01*
X118133333Y-105807200D02*
X117895238Y-106521485D01*
X117895238Y-106521485D02*
X118514285Y-106521485D01*
%TO.C,D1*%
X139075319Y-88988094D02*
X138075319Y-88988094D01*
X138075319Y-88988094D02*
X138075319Y-88749999D01*
X138075319Y-88749999D02*
X138122938Y-88607142D01*
X138122938Y-88607142D02*
X138218176Y-88511904D01*
X138218176Y-88511904D02*
X138313414Y-88464285D01*
X138313414Y-88464285D02*
X138503890Y-88416666D01*
X138503890Y-88416666D02*
X138646747Y-88416666D01*
X138646747Y-88416666D02*
X138837223Y-88464285D01*
X138837223Y-88464285D02*
X138932461Y-88511904D01*
X138932461Y-88511904D02*
X139027700Y-88607142D01*
X139027700Y-88607142D02*
X139075319Y-88749999D01*
X139075319Y-88749999D02*
X139075319Y-88988094D01*
X139075319Y-87464285D02*
X139075319Y-88035713D01*
X139075319Y-87749999D02*
X138075319Y-87749999D01*
X138075319Y-87749999D02*
X138218176Y-87845237D01*
X138218176Y-87845237D02*
X138313414Y-87940475D01*
X138313414Y-87940475D02*
X138361033Y-88035713D01*
%TO.C,C6*%
X131333333Y-97459580D02*
X131285714Y-97507200D01*
X131285714Y-97507200D02*
X131142857Y-97554819D01*
X131142857Y-97554819D02*
X131047619Y-97554819D01*
X131047619Y-97554819D02*
X130904762Y-97507200D01*
X130904762Y-97507200D02*
X130809524Y-97411961D01*
X130809524Y-97411961D02*
X130761905Y-97316723D01*
X130761905Y-97316723D02*
X130714286Y-97126247D01*
X130714286Y-97126247D02*
X130714286Y-96983390D01*
X130714286Y-96983390D02*
X130761905Y-96792914D01*
X130761905Y-96792914D02*
X130809524Y-96697676D01*
X130809524Y-96697676D02*
X130904762Y-96602438D01*
X130904762Y-96602438D02*
X131047619Y-96554819D01*
X131047619Y-96554819D02*
X131142857Y-96554819D01*
X131142857Y-96554819D02*
X131285714Y-96602438D01*
X131285714Y-96602438D02*
X131333333Y-96650057D01*
X132190476Y-96554819D02*
X132000000Y-96554819D01*
X132000000Y-96554819D02*
X131904762Y-96602438D01*
X131904762Y-96602438D02*
X131857143Y-96650057D01*
X131857143Y-96650057D02*
X131761905Y-96792914D01*
X131761905Y-96792914D02*
X131714286Y-96983390D01*
X131714286Y-96983390D02*
X131714286Y-97364342D01*
X131714286Y-97364342D02*
X131761905Y-97459580D01*
X131761905Y-97459580D02*
X131809524Y-97507200D01*
X131809524Y-97507200D02*
X131904762Y-97554819D01*
X131904762Y-97554819D02*
X132095238Y-97554819D01*
X132095238Y-97554819D02*
X132190476Y-97507200D01*
X132190476Y-97507200D02*
X132238095Y-97459580D01*
X132238095Y-97459580D02*
X132285714Y-97364342D01*
X132285714Y-97364342D02*
X132285714Y-97126247D01*
X132285714Y-97126247D02*
X132238095Y-97031009D01*
X132238095Y-97031009D02*
X132190476Y-96983390D01*
X132190476Y-96983390D02*
X132095238Y-96935771D01*
X132095238Y-96935771D02*
X131904762Y-96935771D01*
X131904762Y-96935771D02*
X131809524Y-96983390D01*
X131809524Y-96983390D02*
X131761905Y-97031009D01*
X131761905Y-97031009D02*
X131714286Y-97126247D01*
%TO.C,C10*%
X147257142Y-108359580D02*
X147209523Y-108407200D01*
X147209523Y-108407200D02*
X147066666Y-108454819D01*
X147066666Y-108454819D02*
X146971428Y-108454819D01*
X146971428Y-108454819D02*
X146828571Y-108407200D01*
X146828571Y-108407200D02*
X146733333Y-108311961D01*
X146733333Y-108311961D02*
X146685714Y-108216723D01*
X146685714Y-108216723D02*
X146638095Y-108026247D01*
X146638095Y-108026247D02*
X146638095Y-107883390D01*
X146638095Y-107883390D02*
X146685714Y-107692914D01*
X146685714Y-107692914D02*
X146733333Y-107597676D01*
X146733333Y-107597676D02*
X146828571Y-107502438D01*
X146828571Y-107502438D02*
X146971428Y-107454819D01*
X146971428Y-107454819D02*
X147066666Y-107454819D01*
X147066666Y-107454819D02*
X147209523Y-107502438D01*
X147209523Y-107502438D02*
X147257142Y-107550057D01*
X148209523Y-108454819D02*
X147638095Y-108454819D01*
X147923809Y-108454819D02*
X147923809Y-107454819D01*
X147923809Y-107454819D02*
X147828571Y-107597676D01*
X147828571Y-107597676D02*
X147733333Y-107692914D01*
X147733333Y-107692914D02*
X147638095Y-107740533D01*
X148828571Y-107454819D02*
X148923809Y-107454819D01*
X148923809Y-107454819D02*
X149019047Y-107502438D01*
X149019047Y-107502438D02*
X149066666Y-107550057D01*
X149066666Y-107550057D02*
X149114285Y-107645295D01*
X149114285Y-107645295D02*
X149161904Y-107835771D01*
X149161904Y-107835771D02*
X149161904Y-108073866D01*
X149161904Y-108073866D02*
X149114285Y-108264342D01*
X149114285Y-108264342D02*
X149066666Y-108359580D01*
X149066666Y-108359580D02*
X149019047Y-108407200D01*
X149019047Y-108407200D02*
X148923809Y-108454819D01*
X148923809Y-108454819D02*
X148828571Y-108454819D01*
X148828571Y-108454819D02*
X148733333Y-108407200D01*
X148733333Y-108407200D02*
X148685714Y-108359580D01*
X148685714Y-108359580D02*
X148638095Y-108264342D01*
X148638095Y-108264342D02*
X148590476Y-108073866D01*
X148590476Y-108073866D02*
X148590476Y-107835771D01*
X148590476Y-107835771D02*
X148638095Y-107645295D01*
X148638095Y-107645295D02*
X148685714Y-107550057D01*
X148685714Y-107550057D02*
X148733333Y-107502438D01*
X148733333Y-107502438D02*
X148828571Y-107454819D01*
%TO.C,G\u002A\u002A\u002A*%
G36*
X126192220Y-107819184D02*
G01*
X126192220Y-107979024D01*
X126220208Y-107979024D01*
X126233123Y-107978305D01*
X126245334Y-107974951D01*
X126258807Y-107967171D01*
X126275505Y-107953171D01*
X126297394Y-107931159D01*
X126326438Y-107899342D01*
X126364601Y-107855928D01*
X126400682Y-107814341D01*
X126438247Y-107771248D01*
X126472323Y-107732735D01*
X126500539Y-107701435D01*
X126520527Y-107679978D01*
X126529270Y-107671453D01*
X126547341Y-107664572D01*
X126576774Y-107660185D01*
X126596925Y-107659344D01*
X126649186Y-107659344D01*
X126540082Y-107782857D01*
X126499767Y-107828240D01*
X126459943Y-107872617D01*
X126424050Y-107912186D01*
X126395530Y-107943143D01*
X126383932Y-107955436D01*
X126336887Y-108004502D01*
X126357979Y-108023247D01*
X126370139Y-108035904D01*
X126392620Y-108061070D01*
X126423350Y-108096355D01*
X126460259Y-108139373D01*
X126501278Y-108187735D01*
X126523324Y-108213940D01*
X126667577Y-108385889D01*
X126615808Y-108385889D01*
X126583457Y-108383707D01*
X126557568Y-108378129D01*
X126548521Y-108373780D01*
X126537692Y-108362937D01*
X126516514Y-108339740D01*
X126487150Y-108306629D01*
X126451759Y-108266046D01*
X126412503Y-108220431D01*
X126404890Y-108211518D01*
X126365236Y-108165600D01*
X126329010Y-108124696D01*
X126298360Y-108091150D01*
X126275432Y-108067301D01*
X126262375Y-108055492D01*
X126261138Y-108054781D01*
X126239648Y-108049501D01*
X126218860Y-108047516D01*
X126192220Y-108046835D01*
X126192220Y-108216362D01*
X126192220Y-108385889D01*
X126138940Y-108385889D01*
X126085660Y-108385889D01*
X126085660Y-108022617D01*
X126085660Y-107659344D01*
X126138940Y-107659344D01*
X126192220Y-107659344D01*
X126192220Y-107819184D01*
G37*
G36*
X126727594Y-107872587D02*
G01*
X126737050Y-107875967D01*
X126745386Y-107884429D01*
X126753674Y-107900122D01*
X126762983Y-107925200D01*
X126774384Y-107961812D01*
X126788948Y-108012110D01*
X126807745Y-108078246D01*
X126813504Y-108098461D01*
X126865485Y-108280665D01*
X126927032Y-108088674D01*
X126946013Y-108030368D01*
X126963624Y-107977959D01*
X126978824Y-107934405D01*
X126990577Y-107902665D01*
X126997843Y-107885696D01*
X126998857Y-107884083D01*
X127015497Y-107875998D01*
X127042178Y-107874312D01*
X127043230Y-107874396D01*
X127077324Y-107877308D01*
X127140405Y-108077895D01*
X127203486Y-108278482D01*
X127226296Y-108198986D01*
X127238442Y-108157577D01*
X127254329Y-108104705D01*
X127271839Y-108047371D01*
X127287784Y-107995977D01*
X127326463Y-107872464D01*
X127370675Y-107872464D01*
X127398608Y-107874065D01*
X127410060Y-107879443D01*
X127410007Y-107885182D01*
X127405817Y-107897504D01*
X127396515Y-107925696D01*
X127382940Y-107967188D01*
X127365930Y-108019413D01*
X127346323Y-108079800D01*
X127326216Y-108141894D01*
X127247305Y-108385889D01*
X127205095Y-108385889D01*
X127162885Y-108385889D01*
X127108081Y-108215534D01*
X127089952Y-108159509D01*
X127073193Y-108108321D01*
X127058959Y-108065457D01*
X127048407Y-108034401D01*
X127042991Y-108019367D01*
X127039096Y-108012227D01*
X127034591Y-108011551D01*
X127028610Y-108019266D01*
X127020290Y-108037300D01*
X127008766Y-108067582D01*
X126993174Y-108112040D01*
X126972650Y-108172601D01*
X126967714Y-108187300D01*
X126902724Y-108381045D01*
X126863197Y-108383981D01*
X126837416Y-108384093D01*
X126821097Y-108380803D01*
X126819062Y-108379137D01*
X126815069Y-108368359D01*
X126806196Y-108342167D01*
X126793393Y-108303503D01*
X126777609Y-108255313D01*
X126759793Y-108200540D01*
X126740894Y-108142128D01*
X126721862Y-108083021D01*
X126703645Y-108026164D01*
X126687193Y-107974500D01*
X126673454Y-107930974D01*
X126663378Y-107898529D01*
X126657915Y-107880109D01*
X126657208Y-107877095D01*
X126665877Y-107874339D01*
X126687821Y-107872681D01*
X126701041Y-107872464D01*
X126715947Y-107872136D01*
X126727594Y-107872587D01*
G37*
G36*
X127742292Y-107868651D02*
G01*
X127764742Y-107875991D01*
X127805843Y-107903204D01*
X127837649Y-107944855D01*
X127857236Y-107997084D01*
X127857566Y-107998593D01*
X127861088Y-108024802D01*
X127864112Y-108065967D01*
X127866424Y-108117668D01*
X127867810Y-108175490D01*
X127868116Y-108217424D01*
X127868116Y-108387059D01*
X127831869Y-108384052D01*
X127805929Y-108379058D01*
X127794250Y-108367999D01*
X127792553Y-108361671D01*
X127787330Y-108336507D01*
X127779399Y-108326263D01*
X127764720Y-108330008D01*
X127739250Y-108346812D01*
X127736510Y-108348775D01*
X127709461Y-108366410D01*
X127684828Y-108376579D01*
X127654772Y-108381687D01*
X127622627Y-108383700D01*
X127575656Y-108383407D01*
X127541340Y-108378408D01*
X127529996Y-108374156D01*
X127495995Y-108346018D01*
X127473381Y-108307278D01*
X127463691Y-108263417D01*
X127464948Y-108251956D01*
X127548437Y-108251956D01*
X127556639Y-108282960D01*
X127578916Y-108304997D01*
X127611774Y-108317264D01*
X127651715Y-108318960D01*
X127695246Y-108309282D01*
X127729222Y-108293452D01*
X127771244Y-108268825D01*
X127771244Y-108209772D01*
X127771244Y-108150719D01*
X127708168Y-108157181D01*
X127641763Y-108168433D01*
X127592960Y-108186718D01*
X127561939Y-108211931D01*
X127548881Y-108243963D01*
X127548437Y-108251956D01*
X127464948Y-108251956D01*
X127468460Y-108219919D01*
X127479746Y-108194906D01*
X127507644Y-108165637D01*
X127550461Y-108139374D01*
X127603785Y-108117814D01*
X127663205Y-108102650D01*
X127724309Y-108095577D01*
X127739117Y-108095271D01*
X127771244Y-108095271D01*
X127771244Y-108041246D01*
X127769767Y-108007496D01*
X127763516Y-107985060D01*
X127749756Y-107965989D01*
X127742927Y-107958904D01*
X127710223Y-107936638D01*
X127671597Y-107930477D01*
X127625330Y-107940433D01*
X127581915Y-107959874D01*
X127551444Y-107975341D01*
X127532730Y-107982297D01*
X127520599Y-107981658D01*
X127509881Y-107974339D01*
X127508277Y-107972904D01*
X127493112Y-107954186D01*
X127494288Y-107937193D01*
X127512552Y-107917985D01*
X127519736Y-107912478D01*
X127569333Y-107885242D01*
X127627222Y-107868224D01*
X127687007Y-107862376D01*
X127742292Y-107868651D01*
G37*
G36*
X128410603Y-108013514D02*
G01*
X128410603Y-108387059D01*
X128374276Y-108384052D01*
X128350137Y-108380343D01*
X128339129Y-108370996D01*
X128335008Y-108350540D01*
X128334913Y-108349562D01*
X128331482Y-108328129D01*
X128327199Y-108318167D01*
X128326809Y-108318078D01*
X128316783Y-108323277D01*
X128296284Y-108336676D01*
X128278101Y-108349418D01*
X128251319Y-108366773D01*
X128226515Y-108376800D01*
X128195891Y-108381875D01*
X128165114Y-108383828D01*
X128123862Y-108384367D01*
X128095364Y-108380904D01*
X128073235Y-108372428D01*
X128065846Y-108368112D01*
X128021385Y-108328932D01*
X127989599Y-108275457D01*
X127970730Y-108208249D01*
X127965966Y-108146656D01*
X128057521Y-108146656D01*
X128061025Y-108195338D01*
X128069594Y-108234871D01*
X128074647Y-108246990D01*
X128105160Y-108287450D01*
X128145004Y-108311586D01*
X128191871Y-108318565D01*
X128242867Y-108307775D01*
X128268865Y-108293748D01*
X128295109Y-108273620D01*
X128296777Y-108272057D01*
X128307595Y-108261140D01*
X128314998Y-108250225D01*
X128319635Y-108235599D01*
X128322151Y-108213554D01*
X128323196Y-108180376D01*
X128323415Y-108132355D01*
X128323417Y-108119366D01*
X128323214Y-108067186D01*
X128322250Y-108030778D01*
X128319990Y-108006543D01*
X128315902Y-107990880D01*
X128309452Y-107980189D01*
X128301621Y-107972236D01*
X128256912Y-107942691D01*
X128209733Y-107930794D01*
X128163458Y-107935932D01*
X128121460Y-107957493D01*
X128087113Y-107994864D01*
X128076781Y-108013057D01*
X128065460Y-108048781D01*
X128059020Y-108095559D01*
X128057521Y-108146656D01*
X127965966Y-108146656D01*
X127964989Y-108134020D01*
X127971881Y-108055570D01*
X127991968Y-107988968D01*
X128024363Y-107935300D01*
X128068180Y-107895654D01*
X128122533Y-107871118D01*
X128186058Y-107862777D01*
X128225852Y-107865104D01*
X128255604Y-107873641D01*
X128278903Y-107886995D01*
X128301365Y-107901626D01*
X128316337Y-107910242D01*
X128319004Y-107911213D01*
X128320590Y-107902104D01*
X128321923Y-107877087D01*
X128322891Y-107839627D01*
X128323380Y-107793193D01*
X128323417Y-107775592D01*
X128323417Y-107639970D01*
X128367010Y-107639970D01*
X128410603Y-107639970D01*
X128410603Y-108013514D01*
G37*
G36*
X128914340Y-107902822D02*
G01*
X128911966Y-107915987D01*
X128904043Y-107934264D01*
X128889372Y-107959516D01*
X128866755Y-107993604D01*
X128834991Y-108038391D01*
X128792883Y-108095739D01*
X128772430Y-108123207D01*
X128630520Y-108313235D01*
X128767587Y-108315922D01*
X128904653Y-108318610D01*
X128904653Y-108352250D01*
X128904653Y-108385889D01*
X128715752Y-108385889D01*
X128526850Y-108385889D01*
X128526850Y-108357039D01*
X128529775Y-108343395D01*
X128539276Y-108323152D01*
X128556446Y-108294616D01*
X128582374Y-108256094D01*
X128618153Y-108205892D01*
X128664874Y-108142318D01*
X128667315Y-108139029D01*
X128706285Y-108086360D01*
X128741103Y-108038941D01*
X128770192Y-107998949D01*
X128791975Y-107968561D01*
X128804876Y-107949953D01*
X128807781Y-107945072D01*
X128798671Y-107943348D01*
X128773654Y-107941899D01*
X128736195Y-107940847D01*
X128689760Y-107940316D01*
X128672159Y-107940275D01*
X128536537Y-107940275D01*
X128536537Y-107906370D01*
X128536537Y-107872464D01*
X128725439Y-107872464D01*
X128914340Y-107872464D01*
X128914340Y-107902822D01*
G37*
G36*
X127209087Y-107272695D02*
G01*
X127240230Y-107275809D01*
X127272650Y-107282111D01*
X127309425Y-107292507D01*
X127353634Y-107307907D01*
X127408357Y-107329217D01*
X127476672Y-107357345D01*
X127501478Y-107367754D01*
X127596492Y-107406711D01*
X127678013Y-107437705D01*
X127749633Y-107461910D01*
X127814943Y-107480501D01*
X127877534Y-107494654D01*
X127904900Y-107499736D01*
X127948530Y-107508270D01*
X127978471Y-107517092D01*
X128000310Y-107528409D01*
X128019636Y-107544428D01*
X128020747Y-107545499D01*
X128052906Y-107576669D01*
X127929027Y-107618458D01*
X127833760Y-107649758D01*
X127752681Y-107674302D01*
X127682137Y-107692884D01*
X127618474Y-107706295D01*
X127558036Y-107715329D01*
X127497169Y-107720777D01*
X127446720Y-107723057D01*
X127383349Y-107724243D01*
X127333517Y-107723281D01*
X127291472Y-107719791D01*
X127251459Y-107713391D01*
X127228757Y-107708610D01*
X127173644Y-107694328D01*
X127116244Y-107676175D01*
X127061353Y-107655973D01*
X127013764Y-107635542D01*
X126978272Y-107616700D01*
X126968074Y-107609658D01*
X126928154Y-107568585D01*
X126906029Y-107523228D01*
X126901172Y-107475597D01*
X126913053Y-107427703D01*
X126941146Y-107381554D01*
X126984921Y-107339159D01*
X127043851Y-107302530D01*
X127049543Y-107299746D01*
X127089213Y-107283060D01*
X127125393Y-107274550D01*
X127168613Y-107271898D01*
X127176141Y-107271862D01*
X127209087Y-107272695D01*
G37*
G36*
X126588249Y-106327769D02*
G01*
X126631183Y-106329119D01*
X126665408Y-106332191D01*
X126696256Y-106337687D01*
X126729058Y-106346304D01*
X126768612Y-106358570D01*
X126822142Y-106377044D01*
X126874551Y-106398197D01*
X126928381Y-106423414D01*
X126986172Y-106454083D01*
X127050466Y-106491588D01*
X127123805Y-106537316D01*
X127208731Y-106592652D01*
X127257819Y-106625353D01*
X127358601Y-106691606D01*
X127447189Y-106746748D01*
X127526320Y-106792017D01*
X127598730Y-106828648D01*
X127667156Y-106857878D01*
X127734336Y-106880943D01*
X127803006Y-106899080D01*
X127875903Y-106913524D01*
X127906865Y-106918546D01*
X128040636Y-106931229D01*
X128173604Y-106927520D01*
X128309093Y-106907139D01*
X128438434Y-106873542D01*
X128481710Y-106861287D01*
X128521854Y-106851768D01*
X128552770Y-106846354D01*
X128562856Y-106845614D01*
X128596479Y-106845614D01*
X128590168Y-106896473D01*
X128572860Y-106966149D01*
X128539580Y-107037320D01*
X128493065Y-107106459D01*
X128436056Y-107170039D01*
X128371292Y-107224534D01*
X128303594Y-107265407D01*
X128235813Y-107295594D01*
X128173476Y-107315972D01*
X128109820Y-107328006D01*
X128038084Y-107333164D01*
X127989207Y-107333574D01*
X127915813Y-107331154D01*
X127850217Y-107324415D01*
X127787074Y-107312170D01*
X127721043Y-107293232D01*
X127646780Y-107266414D01*
X127596873Y-107246386D01*
X127513588Y-107212255D01*
X127445463Y-107184966D01*
X127389840Y-107163761D01*
X127344056Y-107147879D01*
X127305454Y-107136560D01*
X127271372Y-107129044D01*
X127239150Y-107124572D01*
X127206130Y-107122384D01*
X127169650Y-107121719D01*
X127160429Y-107121701D01*
X127111809Y-107121941D01*
X127076995Y-107123393D01*
X127050419Y-107127154D01*
X127026512Y-107134320D01*
X126999708Y-107145990D01*
X126974317Y-107158376D01*
X126900848Y-107204377D01*
X126837454Y-107265238D01*
X126782804Y-107342334D01*
X126765409Y-107373570D01*
X126746798Y-107407813D01*
X126732909Y-107428327D01*
X126720064Y-107438841D01*
X126704580Y-107443082D01*
X126695958Y-107443923D01*
X126674890Y-107442946D01*
X126652926Y-107435155D01*
X126625087Y-107418272D01*
X126599085Y-107399558D01*
X126505609Y-107318883D01*
X126419944Y-107222803D01*
X126344759Y-107114593D01*
X126298597Y-107030971D01*
X126260253Y-106943012D01*
X126227609Y-106846992D01*
X126201794Y-106747854D01*
X126183940Y-106650543D01*
X126175177Y-106560001D01*
X126175637Y-106493257D01*
X126178992Y-106453189D01*
X126183539Y-106427080D01*
X126191043Y-106409525D01*
X126203270Y-106395118D01*
X126209589Y-106389283D01*
X126249346Y-106364947D01*
X126307283Y-106346625D01*
X126383145Y-106334363D01*
X126476678Y-106328213D01*
X126531274Y-106327444D01*
X126588249Y-106327769D01*
G37*
G36*
X128159281Y-105476719D02*
G01*
X128194199Y-105495333D01*
X128236161Y-105523658D01*
X128282061Y-105559485D01*
X128328792Y-105600606D01*
X128357637Y-105628617D01*
X128443951Y-105729522D01*
X128516327Y-105842700D01*
X128573528Y-105965794D01*
X128614319Y-106096446D01*
X128622553Y-106133676D01*
X128630655Y-106179671D01*
X128638466Y-106234471D01*
X128645640Y-106294245D01*
X128651831Y-106355160D01*
X128656696Y-106413385D01*
X128659888Y-106465089D01*
X128661064Y-106506440D01*
X128659876Y-106533605D01*
X128659005Y-106538427D01*
X128641963Y-106573844D01*
X128610568Y-106609723D01*
X128569119Y-106641294D01*
X128563006Y-106644955D01*
X128516745Y-106668594D01*
X128458321Y-106693800D01*
X128394503Y-106718016D01*
X128332059Y-106738685D01*
X128277756Y-106753251D01*
X128274431Y-106753976D01*
X128206379Y-106765027D01*
X128129831Y-106771696D01*
X128051569Y-106773802D01*
X127978374Y-106771165D01*
X127917026Y-106763604D01*
X127916552Y-106763514D01*
X127818489Y-106740357D01*
X127721995Y-106708113D01*
X127623685Y-106665298D01*
X127520174Y-106610431D01*
X127408080Y-106542028D01*
X127401941Y-106538065D01*
X127315489Y-106483576D01*
X127226178Y-106429945D01*
X127136426Y-106378438D01*
X127048653Y-106330321D01*
X126965277Y-106286862D01*
X126888717Y-106249326D01*
X126821393Y-106218980D01*
X126765724Y-106197090D01*
X126729863Y-106186194D01*
X126704950Y-106182271D01*
X126664638Y-106178257D01*
X126612902Y-106174442D01*
X126553712Y-106171118D01*
X126491042Y-106168579D01*
X126489175Y-106168518D01*
X126296924Y-106162364D01*
X126267761Y-106129725D01*
X126249484Y-106106494D01*
X126242716Y-106086453D01*
X126244418Y-106059990D01*
X126244843Y-106057219D01*
X126254623Y-106021234D01*
X126273293Y-105974314D01*
X126298446Y-105921264D01*
X126327672Y-105866888D01*
X126358561Y-105815989D01*
X126384426Y-105778914D01*
X126446735Y-105709563D01*
X126518082Y-105654943D01*
X126600924Y-105613540D01*
X126697717Y-105583839D01*
X126702713Y-105582691D01*
X126747345Y-105573577D01*
X126785195Y-105569043D01*
X126821039Y-105569577D01*
X126859656Y-105575671D01*
X126905823Y-105587814D01*
X126964318Y-105606495D01*
X126977291Y-105610849D01*
X127054697Y-105636555D01*
X127136862Y-105663153D01*
X127220751Y-105689718D01*
X127303331Y-105715327D01*
X127381566Y-105739054D01*
X127452422Y-105759975D01*
X127512864Y-105777166D01*
X127559858Y-105789702D01*
X127580972Y-105794745D01*
X127670435Y-105807186D01*
X127754064Y-105804412D01*
X127828986Y-105786604D01*
X127850968Y-105777616D01*
X127919500Y-105736437D01*
X127981259Y-105680398D01*
X128032210Y-105613822D01*
X128065858Y-105547521D01*
X128086118Y-105504731D01*
X128107236Y-105479536D01*
X128130777Y-105470172D01*
X128134515Y-105470023D01*
X128159281Y-105476719D01*
G37*
G36*
X127531146Y-105222600D02*
G01*
X127629800Y-105235224D01*
X127716214Y-105255587D01*
X127789288Y-105283175D01*
X127847925Y-105317477D01*
X127891024Y-105357978D01*
X127917488Y-105404166D01*
X127926225Y-105454028D01*
X127917164Y-105505100D01*
X127892318Y-105552587D01*
X127855251Y-105591939D01*
X127809528Y-105618608D01*
X127793167Y-105623845D01*
X127740542Y-105633163D01*
X127677277Y-105638096D01*
X127611679Y-105638298D01*
X127554397Y-105633746D01*
X127518237Y-105626645D01*
X127466717Y-105613299D01*
X127402507Y-105594566D01*
X127328274Y-105571303D01*
X127246685Y-105544367D01*
X127160408Y-105514617D01*
X127072110Y-105482910D01*
X126991419Y-105452761D01*
X126936801Y-105431721D01*
X126897724Y-105415871D01*
X126871529Y-105403754D01*
X126855560Y-105393912D01*
X126847158Y-105384890D01*
X126843666Y-105375230D01*
X126843116Y-105371471D01*
X126842662Y-105361617D01*
X126845609Y-105353499D01*
X126854547Y-105345788D01*
X126872070Y-105337158D01*
X126900767Y-105326280D01*
X126943230Y-105311828D01*
X126988904Y-105296784D01*
X127085530Y-105266875D01*
X127170025Y-105244995D01*
X127247445Y-105230224D01*
X127322844Y-105221645D01*
X127401278Y-105218338D01*
X127421349Y-105218228D01*
X127531146Y-105222600D01*
G37*
G36*
X126545494Y-104679964D02*
G01*
X126560218Y-104685350D01*
X126566241Y-104697254D01*
X126568320Y-104713401D01*
X126567869Y-104737668D01*
X126558659Y-104752543D01*
X126537402Y-104760167D01*
X126500811Y-104762680D01*
X126492525Y-104762754D01*
X126439456Y-104769986D01*
X126394414Y-104789501D01*
X126359569Y-104818657D01*
X126337094Y-104854813D01*
X126329159Y-104895326D01*
X126337936Y-104937554D01*
X126341916Y-104946028D01*
X126363300Y-104973547D01*
X126393994Y-104988724D01*
X126436427Y-104992228D01*
X126486620Y-104985963D01*
X126566033Y-104973775D01*
X126634275Y-104968714D01*
X126689215Y-104970806D01*
X126728722Y-104980080D01*
X126734483Y-104982747D01*
X126772849Y-105012814D01*
X126802576Y-105056181D01*
X126822149Y-105108127D01*
X126830050Y-105163934D01*
X126824764Y-105218882D01*
X126817759Y-105241859D01*
X126794680Y-105282339D01*
X126758462Y-105323242D01*
X126714498Y-105359333D01*
X126671274Y-105384042D01*
X126635079Y-105395477D01*
X126589048Y-105403880D01*
X126541309Y-105408306D01*
X126499990Y-105407812D01*
X126485260Y-105405647D01*
X126469463Y-105397572D01*
X126463761Y-105378953D01*
X126463463Y-105369571D01*
X126467270Y-105340299D01*
X126480777Y-105324485D01*
X126507110Y-105319875D01*
X126530176Y-105321529D01*
X126593899Y-105320402D01*
X126650930Y-105301102D01*
X126701554Y-105263531D01*
X126703056Y-105262041D01*
X126726932Y-105236259D01*
X126739388Y-105215673D01*
X126743943Y-105193143D01*
X126744358Y-105178258D01*
X126736846Y-105130656D01*
X126715806Y-105092641D01*
X126683344Y-105067626D01*
X126673576Y-105063764D01*
X126653663Y-105059134D01*
X126630292Y-105058528D01*
X126598632Y-105062271D01*
X126553853Y-105070691D01*
X126545349Y-105072453D01*
X126479433Y-105084826D01*
X126428235Y-105090566D01*
X126388125Y-105089269D01*
X126355476Y-105080528D01*
X126326657Y-105063939D01*
X126304824Y-105045589D01*
X126267488Y-104998799D01*
X126246989Y-104946215D01*
X126242971Y-104890979D01*
X126255081Y-104836234D01*
X126282964Y-104785121D01*
X126326266Y-104740781D01*
X126340375Y-104730501D01*
X126399941Y-104697013D01*
X126457468Y-104679869D01*
X126516743Y-104677375D01*
X126545494Y-104679964D01*
G37*
G36*
X128250627Y-104813280D02*
G01*
X128292127Y-104833442D01*
X128273148Y-104878068D01*
X128253007Y-104924400D01*
X128229295Y-104977306D01*
X128203308Y-105034067D01*
X128176339Y-105091968D01*
X128149685Y-105148291D01*
X128124642Y-105200319D01*
X128102503Y-105245337D01*
X128084566Y-105280626D01*
X128072124Y-105303471D01*
X128066651Y-105311160D01*
X128052242Y-105308882D01*
X128029424Y-105299960D01*
X128025534Y-105298083D01*
X128004789Y-105285336D01*
X127994347Y-105274130D01*
X127994051Y-105272640D01*
X127997938Y-105261539D01*
X128008897Y-105235258D01*
X128025868Y-105196203D01*
X128047794Y-105146781D01*
X128073618Y-105089399D01*
X128101589Y-105027974D01*
X128209127Y-104793117D01*
X128250627Y-104813280D01*
G37*
G36*
X127233360Y-104658484D02*
G01*
X127286620Y-104682565D01*
X127330569Y-104721346D01*
X127362823Y-104773311D01*
X127380495Y-104833711D01*
X127382828Y-104846066D01*
X127383675Y-104855455D01*
X127380693Y-104862829D01*
X127371543Y-104869140D01*
X127353883Y-104875339D01*
X127325373Y-104882378D01*
X127283671Y-104891209D01*
X127226438Y-104902782D01*
X127194851Y-104909166D01*
X127142649Y-104919875D01*
X127097484Y-104929370D01*
X127062605Y-104936950D01*
X127041263Y-104941913D01*
X127036140Y-104943436D01*
X127036683Y-104954022D01*
X127045733Y-104975402D01*
X127060434Y-105002679D01*
X127077928Y-105030956D01*
X127095359Y-105055335D01*
X127109870Y-105070920D01*
X127111013Y-105071780D01*
X127158016Y-105094003D01*
X127209964Y-105098423D01*
X127264716Y-105085272D01*
X127320133Y-105054780D01*
X127328921Y-105048305D01*
X127354575Y-105029404D01*
X127370750Y-105021007D01*
X127383158Y-105021593D01*
X127397513Y-105029639D01*
X127397940Y-105029918D01*
X127413309Y-105045382D01*
X127412979Y-105062991D01*
X127396219Y-105084732D01*
X127369664Y-105107070D01*
X127319026Y-105137114D01*
X127260770Y-105157953D01*
X127200433Y-105168586D01*
X127143550Y-105168009D01*
X127097979Y-105156264D01*
X127043395Y-105122048D01*
X126999388Y-105072194D01*
X126966666Y-105007739D01*
X126947006Y-104935710D01*
X126943368Y-104875370D01*
X127025801Y-104875370D01*
X127027967Y-104885992D01*
X127036993Y-104886333D01*
X127040863Y-104885206D01*
X127057276Y-104881069D01*
X127088194Y-104874140D01*
X127129120Y-104865399D01*
X127173457Y-104856255D01*
X127218273Y-104846778D01*
X127255908Y-104838089D01*
X127282417Y-104831148D01*
X127293856Y-104826917D01*
X127293862Y-104826912D01*
X127295209Y-104813324D01*
X127286162Y-104791492D01*
X127270070Y-104766825D01*
X127250285Y-104744731D01*
X127236147Y-104733761D01*
X127195237Y-104717440D01*
X127151418Y-104717994D01*
X127105887Y-104733243D01*
X127069881Y-104756926D01*
X127045554Y-104791522D01*
X127030735Y-104840339D01*
X127029031Y-104850123D01*
X127025801Y-104875370D01*
X126943368Y-104875370D01*
X126942828Y-104866414D01*
X126955688Y-104802814D01*
X126984220Y-104747236D01*
X127027062Y-104702002D01*
X127082851Y-104669439D01*
X127108441Y-104660495D01*
X127173172Y-104650621D01*
X127233360Y-104658484D01*
G37*
G36*
X127746030Y-104430104D02*
G01*
X127771757Y-104434708D01*
X127787964Y-104438861D01*
X127790007Y-104439874D01*
X127789873Y-104449993D01*
X127787658Y-104477225D01*
X127783585Y-104519445D01*
X127777873Y-104574529D01*
X127770744Y-104640352D01*
X127762419Y-104714790D01*
X127753120Y-104795718D01*
X127751846Y-104806642D01*
X127740884Y-104901123D01*
X127731897Y-104978094D01*
X127724371Y-105039259D01*
X127717792Y-105086321D01*
X127711646Y-105120986D01*
X127705419Y-105144956D01*
X127698597Y-105159936D01*
X127690667Y-105167630D01*
X127681114Y-105169741D01*
X127669425Y-105167974D01*
X127655085Y-105164033D01*
X127644886Y-105161307D01*
X127620245Y-105155187D01*
X127641901Y-104971129D01*
X127650800Y-104895501D01*
X127660917Y-104809524D01*
X127671255Y-104721674D01*
X127680816Y-104640428D01*
X127684921Y-104605549D01*
X127706285Y-104424026D01*
X127746030Y-104430104D01*
G37*
G36*
X128353781Y-104604735D02*
G01*
X128377080Y-104625136D01*
X128387263Y-104652862D01*
X128385189Y-104683313D01*
X128369143Y-104706802D01*
X128343939Y-104721105D01*
X128314392Y-104723997D01*
X128285315Y-104713255D01*
X128274981Y-104704730D01*
X128258415Y-104676959D01*
X128257352Y-104647197D01*
X128269696Y-104620721D01*
X128293353Y-104602809D01*
X128317272Y-104598170D01*
X128353781Y-104604735D01*
G37*
D11*
%TO.C,SW1*%
X131200000Y-76900000D02*
X131200000Y-76110000D01*
X130600000Y-75100000D02*
X124900000Y-75100000D01*
X129350000Y-77950000D02*
X127650000Y-77950000D01*
X126350000Y-77950000D02*
X126150000Y-77950000D01*
X124300000Y-76110000D02*
X124300000Y-76900000D01*
D12*
%TO.C,J5*%
X155220000Y-99290000D02*
X156500000Y-99290000D01*
X156500000Y-99290000D02*
X156500000Y-89710000D01*
X156500000Y-89710000D02*
X155220000Y-89710000D01*
X151250000Y-99290000D02*
X152500000Y-99290000D01*
X151250000Y-89710000D02*
X152500000Y-89710000D01*
D11*
%TO.C,R5*%
X146411359Y-95370000D02*
X146718641Y-95370000D01*
X146411359Y-96130000D02*
X146718641Y-96130000D01*
%TO.C,C2*%
X144890580Y-98535000D02*
X144609420Y-98535000D01*
X144890580Y-97515000D02*
X144609420Y-97515000D01*
%TO.C,J2*%
X147160000Y-75870000D02*
X147160000Y-77200000D01*
X145830000Y-75870000D02*
X147160000Y-75870000D01*
X144560000Y-75870000D02*
X134340000Y-75870000D01*
X144560000Y-75870000D02*
X144560000Y-78530000D01*
X134340000Y-75870000D02*
X134340000Y-78530000D01*
X144560000Y-78530000D02*
X134340000Y-78530000D01*
%TO.C,C11*%
X124640000Y-85627836D02*
X124640000Y-85412164D01*
X125360000Y-85627836D02*
X125360000Y-85412164D01*
%TO.C,L1*%
X147990000Y-101625279D02*
X147990000Y-101299721D01*
X149010000Y-101625279D02*
X149010000Y-101299721D01*
%TO.C,Y1*%
X122850000Y-81950000D02*
X117750000Y-81950000D01*
X117750000Y-81950000D02*
X117750000Y-94550000D01*
X122850000Y-94550000D02*
X122850000Y-81950000D01*
%TO.C,C12*%
X125460000Y-93172164D02*
X125460000Y-93387836D01*
X124740000Y-93172164D02*
X124740000Y-93387836D01*
%TO.C,R4*%
X142870000Y-83963641D02*
X142870000Y-83656359D01*
X143630000Y-83963641D02*
X143630000Y-83656359D01*
%TO.C,R3*%
X126620000Y-82943641D02*
X126620000Y-82636359D01*
X127380000Y-82943641D02*
X127380000Y-82636359D01*
%TO.C,C7*%
X145812164Y-103640000D02*
X146027836Y-103640000D01*
X145812164Y-104360000D02*
X146027836Y-104360000D01*
%TO.C,J1*%
X141490000Y-109670000D02*
X141490000Y-111000000D01*
X140160000Y-109670000D02*
X141490000Y-109670000D01*
X138890000Y-109670000D02*
X128670000Y-109670000D01*
X138890000Y-109670000D02*
X138890000Y-112330000D01*
X128670000Y-109670000D02*
X128670000Y-112330000D01*
X138890000Y-112330000D02*
X128670000Y-112330000D01*
%TO.C,C9*%
X127487836Y-97960000D02*
X127272164Y-97960000D01*
X127487836Y-97240000D02*
X127272164Y-97240000D01*
%TO.C,D2*%
X155797500Y-102985000D02*
X155797500Y-101515000D01*
X155797500Y-101515000D02*
X153512500Y-101515000D01*
X153512500Y-102985000D02*
X155797500Y-102985000D01*
%TO.C,C5*%
X130310000Y-95234420D02*
X130310000Y-95515580D01*
X129290000Y-95234420D02*
X129290000Y-95515580D01*
%TO.C,R7*%
X127943641Y-93180000D02*
X127636359Y-93180000D01*
X127943641Y-92420000D02*
X127636359Y-92420000D01*
%TO.C,C8*%
X144686252Y-106535000D02*
X144163748Y-106535000D01*
X144686252Y-105065000D02*
X144163748Y-105065000D01*
%TO.C,U2*%
X136437500Y-91850000D02*
X132837500Y-91850000D01*
X136437500Y-91850000D02*
X138637500Y-91850000D01*
X136437500Y-98620000D02*
X134237500Y-98620000D01*
X136437500Y-98620000D02*
X138637500Y-98620000D01*
%TO.C,R1*%
X136620000Y-85893641D02*
X136620000Y-85586359D01*
X137380000Y-85893641D02*
X137380000Y-85586359D01*
%TO.C,U1*%
X147010000Y-101137500D02*
X147010000Y-99337500D01*
X147010000Y-101137500D02*
X147010000Y-101937500D01*
X143890000Y-101137500D02*
X143890000Y-100337500D01*
X143890000Y-101137500D02*
X143890000Y-101937500D01*
%TO.C,FB1*%
X128389500Y-95224721D02*
X128389500Y-95550279D01*
X127369500Y-95224721D02*
X127369500Y-95550279D01*
%TO.C,R2*%
X155480000Y-104006359D02*
X155480000Y-104313641D01*
X154720000Y-104006359D02*
X154720000Y-104313641D01*
%TO.C,C4*%
X141510000Y-95522164D02*
X141510000Y-95737836D01*
X140790000Y-95522164D02*
X140790000Y-95737836D01*
%TO.C,C3*%
X147184420Y-83290000D02*
X147465580Y-83290000D01*
X147184420Y-84310000D02*
X147465580Y-84310000D01*
%TO.C,C1*%
X134877836Y-89420000D02*
X134662164Y-89420000D01*
X134877836Y-88700000D02*
X134662164Y-88700000D01*
%TO.C,R6*%
X146386359Y-92345000D02*
X146693641Y-92345000D01*
X146386359Y-93105000D02*
X146693641Y-93105000D01*
%TO.C,J4*%
X122530000Y-107230000D02*
X121200000Y-107230000D01*
X122530000Y-105900000D02*
X122530000Y-107230000D01*
X122530000Y-104630000D02*
X122530000Y-96950000D01*
X122530000Y-104630000D02*
X119870000Y-104630000D01*
X122530000Y-96950000D02*
X119870000Y-96950000D01*
X119870000Y-104630000D02*
X119870000Y-96950000D01*
%TO.C,D1*%
X137735000Y-87227500D02*
X136265000Y-87227500D01*
X136265000Y-87227500D02*
X136265000Y-89512500D01*
X137735000Y-89512500D02*
X137735000Y-87227500D01*
%TO.C,C6*%
X131989500Y-95318164D02*
X131989500Y-95533836D01*
X131269500Y-95318164D02*
X131269500Y-95533836D01*
%TO.C,C10*%
X144711252Y-107215000D02*
X144188748Y-107215000D01*
X144711252Y-108685000D02*
X144188748Y-108685000D01*
%TD*%
M02*
